<?xml version="1.0" standalone="no"?>
<!DOCTYPE svg PUBLIC "-//W3C//DTD SVG 20010904//EN"
 "http://www.w3.org/TR/2001/REC-SVG-20010904/DTD/svg10.dtd">
<svg version="1.0" xmlns="http://www.w3.org/2000/svg"
 width="512.000000pt" height="512.000000pt" viewBox="0 0 512.000000 512.000000"
 preserveAspectRatio="xMidYMid meet">
<metadata>
Created by potrace 1.14, written by Peter Selinger 2001-2017
</metadata>
<g transform="translate(0.000000,512.000000) scale(0.100000,-0.100000)"
fill="#000000" stroke="none">
<path d="M2332 5109 c-202 -18 -464 -76 -648 -144 -150 -55 -405 -185 -534
-271 -149 -100 -240 -174 -374 -303 -462 -450 -735 -1050 -770 -1691 -4 -77
-3 -87 5 -50 41 189 56 250 91 360 237 742 829 1358 1565 1629 475 174 1038
202 1533 76 462 -117 911 -382 1234 -728 349 -374 551 -765 662 -1282 l24
-110 -6 100 c-34 645 -306 1244 -770 1696 -206 200 -397 335 -649 459 -191 94
-312 140 -489 185 -298 76 -583 100 -874 74z"/>
<path d="M2093 3839 c-20 -20 -3 -38 73 -74 126 -61 204 -160 225 -284 12 -73
12 -1838 0 -1845 -15 -9 -140 33 -215 72 -126 66 -195 146 -248 289 -21 56
-22 77 -28 628 -6 551 -7 572 -28 636 -57 170 -199 309 -375 364 -96 31 -133
32 -147 5 -9 -17 -2 -29 49 -84 66 -71 100 -131 127 -222 15 -52 18 -132 23
-644 l7 -585 31 -72 c45 -106 86 -164 167 -240 127 -118 301 -194 531 -231
l110 -18 3 -489 c2 -542 4 -528 -62 -540 -63 -12 -100 -70 -75 -117 25 -47 30
-47 300 -48 l256 0 23 25 c14 15 23 37 23 55 0 37 -37 80 -70 80 -13 0 -35 11
-48 25 l-25 24 0 491 c0 383 3 492 13 495 6 2 57 11 112 19 210 31 396 112
521 229 86 80 124 136 167 248 l32 84 5 585 c6 569 6 587 28 651 25 75 83 168
136 218 37 36 46 68 22 77 -21 8 -111 -12 -179 -40 -122 -50 -226 -142 -284
-252 -66 -124 -66 -123 -73 -734 -7 -601 -6 -594 -65 -709 -37 -74 -125 -159
-210 -203 -76 -39 -202 -81 -216 -72 -12 7 -12 1772 0 1845 21 125 99 223 227
285 63 30 75 40 72 57 l-3 22 -460 3 c-333 1 -464 -1 -472 -9z"/>
</g>
</svg>
