<?xml version="1.0" standalone="no"?>
<!DOCTYPE svg PUBLIC "-//W3C//DTD SVG 20010904//EN"
 "http://www.w3.org/TR/2001/REC-SVG-20010904/DTD/svg10.dtd">
<svg version="1.0" xmlns="http://www.w3.org/2000/svg"
 width="1064.000000pt" height="1064.000000pt" viewBox="0 0 1064.000000 1064.000000"
 preserveAspectRatio="xMidYMid meet">
<metadata>
Created by potrace 1.14, written by Peter Selinger 2001-2017
</metadata>
<g transform="translate(0.000000,1064.000000) scale(0.100000,-0.100000)"
fill="#000000" stroke="none">
<path d="M5539 10095 c-2 -2 -47 -6 -99 -9 -52 -4 -111 -8 -130 -11 -19 -2
-55 -7 -80 -10 -25 -3 -54 -7 -65 -9 -11 -3 -28 -5 -37 -5 -10 -1 -18 -4 -18
-9 0 -4 61 -7 135 -7 74 0 135 -4 135 -9 0 -5 6 -3 13 3 8 6 17 8 20 5 3 -4
32 -8 64 -10 120 -6 261 -19 313 -29 14 -2 41 -7 60 -9 19 -2 82 -14 140 -26
134 -28 135 -28 135 -30 0 -1 8 -3 18 -6 28 -7 39 -10 87 -24 57 -17 52 -16
73 -23 9 -4 25 -10 35 -14 9 -3 19 -7 22 -7 49 -10 262 -117 363 -182 266
-172 542 -483 728 -819 34 -63 159 -312 159 -319 0 -2 8 -21 17 -42 9 -22 17
-41 18 -44 1 -3 6 -16 12 -30 18 -42 95 -254 97 -265 1 -5 4 -14 8 -20 3 -5 9
-26 13 -45 4 -19 12 -46 18 -60 5 -14 12 -34 14 -44 2 -11 10 -38 17 -60 11
-33 75 -276 92 -348 2 -10 6 -26 8 -35 2 -10 11 -54 20 -98 9 -44 21 -96 26
-115 5 -19 11 -46 13 -60 7 -40 27 -113 37 -135 41 -93 87 -182 100 -195 3 -3
17 -21 30 -40 72 -103 231 -259 419 -410 219 -176 285 -242 297 -292 1 -5 3
-9 4 -10 2 -3 10 -59 11 -83 1 -20 -12 -68 -26 -94 -21 -40 -55 -74 -110 -112
-155 -107 -176 -127 -205 -192 -37 -83 -14 -164 73 -262 40 -45 40 -53 1 -143
-13 -29 -24 -56 -25 -60 -1 -4 -4 -13 -6 -19 -3 -7 5 -28 17 -48 12 -19 18
-35 15 -35 -4 0 -1 -10 7 -22 19 -32 14 -123 -11 -181 -11 -26 -18 -47 -15
-47 2 0 -3 -11 -12 -25 -22 -33 -26 -132 -8 -190 14 -49 35 -82 96 -156 21
-25 38 -51 38 -57 0 -7 4 -12 8 -12 7 0 33 -42 37 -60 0 -3 5 -14 11 -25 17
-32 36 -111 36 -147 -1 -108 -54 -227 -138 -311 -50 -50 -131 -103 -171 -112
-10 -2 -32 -8 -50 -14 -31 -9 -386 -7 -448 3 -16 3 -58 8 -93 11 -35 4 -73 8
-85 11 -28 5 -324 5 -357 0 -14 -3 -50 -7 -80 -10 -56 -6 -95 -12 -140 -21
-14 -3 -38 -8 -55 -11 -112 -20 -325 -93 -455 -157 -76 -36 -218 -117 -245
-139 -5 -4 -48 -36 -95 -70 -47 -33 -92 -70 -101 -80 -9 -10 -19 -18 -23 -18
-7 0 -183 -176 -231 -231 -72 -82 -132 -161 -187 -243 -26 -39 -51 -75 -55
-81 -38 -50 -141 -244 -153 -290 -1 -5 -4 -14 -5 -20 -4 -12 -15 -62 -16 -72
-1 -5 -6 -19 -11 -33 -13 -33 -19 -265 -8 -316 5 -21 11 -52 13 -69 11 -73 84
-265 108 -285 3 -3 12 -16 19 -30 42 -80 222 -269 265 -278 8 -2 15 -7 15 -12
0 -5 46 -31 103 -59 113 -56 185 -77 387 -115 14 -3 36 -8 50 -11 14 -3 45 -8
70 -10 25 -2 56 -6 70 -9 142 -27 610 -27 775 -1 160 26 313 59 415 90 47 14
92 27 101 29 9 3 36 11 60 19 24 8 64 20 89 27 25 6 59 18 75 25 30 13 63 25
68 24 1 0 52 22 114 49 62 27 114 47 117 44 4 -3 6 0 6 6 0 7 6 12 12 12 16 0
219 101 236 118 8 7 17 10 22 7 5 -3 10 -2 12 3 1 4 26 21 53 36 61 35 278
177 285 186 3 4 25 21 49 38 151 109 389 349 497 502 21 30 42 57 46 58 5 2 8
8 8 13 0 5 23 40 50 79 28 39 50 72 50 75 0 3 5 11 10 18 27 32 140 218 195
322 21 39 49 89 62 113 14 23 21 42 16 42 -4 0 -3 4 2 8 13 9 75 134 75 150 0
7 5 12 10 12 6 0 10 6 10 14 0 7 14 44 31 82 49 107 52 115 64 159 4 17 13 36
18 44 6 7 12 18 13 25 4 22 72 217 78 223 3 4 6 17 6 29 0 13 5 26 10 29 6 4
8 11 5 16 -4 5 -3 15 2 22 4 6 8 17 9 22 1 6 11 44 22 85 28 100 78 326 87
395 2 17 7 41 10 55 3 14 7 45 10 70 3 25 8 54 10 65 2 11 7 50 10 86 4 36 8
79 10 95 26 206 25 698 -1 934 -17 158 -23 209 -30 250 -3 19 -7 46 -9 60 -2
14 -7 41 -11 60 -3 19 -7 46 -9 60 -1 14 -4 34 -8 45 -3 11 -9 36 -12 55 -3
19 -10 51 -15 70 -5 19 -11 46 -14 60 -6 30 -40 159 -67 255 -100 349 -315
846 -469 1085 -5 8 -17 29 -26 45 -19 33 -185 287 -194 295 -3 3 -28 37 -55
75 -26 39 -54 77 -61 85 -8 8 -41 49 -74 90 -101 125 -132 162 -195 229 -115
124 -254 259 -386 376 -54 49 -240 199 -279 225 -19 13 -37 27 -40 31 -11 14
-289 199 -299 199 -6 0 -11 4 -11 8 0 5 -19 19 -42 31 -24 12 -65 36 -93 53
-73 46 -394 208 -510 258 -159 69 -162 70 -207 86 -168 62 -258 92 -258 87 0
-3 -6 0 -14 6 -8 7 -23 13 -34 16 -10 2 -50 12 -88 24 -77 22 -308 81 -339 86
-11 2 -32 6 -47 9 -43 9 -79 16 -123 22 -22 3 -47 8 -55 11 -8 3 -31 7 -50 9
-19 1 -48 5 -65 8 -16 4 -52 9 -80 11 -47 5 -99 11 -190 21 -49 6 -611 14
-616 9z"/>
<path d="M3541 9783 c-58 -143 -72 -346 -33 -477 22 -72 39 -113 52 -126 3 -3
14 -18 25 -35 10 -16 30 -39 44 -50 24 -19 121 -68 121 -61 0 2 21 -2 47 -10
77 -23 81 -21 72 34 -7 41 -24 126 -32 157 -7 27 -33 89 -73 171 -48 99 -54
118 -26 86 41 -48 50 -60 53 -68 2 -5 17 -34 33 -64 17 -30 31 -60 32 -66 1
-6 9 -27 17 -45 8 -19 26 -70 38 -113 l23 -79 12 34 c6 19 9 37 7 42 -2 4 1 7
6 7 6 0 10 3 9 8 -1 4 4 31 11 60 16 62 21 161 9 168 -5 3 -6 9 -3 14 16 26
-135 220 -171 220 -7 0 -14 3 -16 8 -1 4 -39 34 -83 66 -98 73 -145 116 -145
133 0 23 -17 14 -29 -14z"/>
<path d="M4485 9757 c-75 -57 -190 -182 -227 -245 -70 -117 -100 -267 -73
-358 14 -48 56 -112 114 -172 40 -42 40 -42 52 -20 7 13 20 37 29 53 9 17 20
44 25 60 4 17 10 35 11 40 13 39 46 176 50 205 3 19 6 44 9 55 2 11 4 30 4 43
1 12 5 22 9 22 10 0 8 -147 -3 -208 -4 -23 -7 -44 -7 -47 0 -4 -33 -132 -42
-160 -2 -5 -8 -23 -14 -38 -7 -16 -12 -33 -12 -38 0 -20 142 97 190 157 63 79
71 204 20 349 -60 174 -70 203 -74 226 -3 13 -5 24 -6 24 -1 0 -3 17 -4 37 -1
20 -4 39 -6 42 -3 2 -23 -10 -45 -27z"/>
<path d="M5226 9707 c-11 -7 -25 -16 -30 -20 -6 -5 -24 -17 -41 -27 -16 -11
-39 -25 -49 -32 -45 -30 -147 -138 -184 -196 -53 -82 -79 -160 -83 -247 -2
-39 25 -135 49 -175 24 -38 79 -80 98 -73 34 13 106 157 149 298 15 50 33 108
41 130 l14 40 -5 -55 c-12 -114 -56 -269 -110 -379 -18 -36 -31 -68 -29 -70 5
-6 147 87 185 121 97 89 115 195 70 403 -12 55 -25 109 -27 120 -5 16 -12 106
-14 163 0 15 -9 15 -34 -1z"/>
<path d="M5693 9657 c-7 -7 -24 -21 -39 -32 -40 -30 -125 -115 -157 -158 -30
-40 -75 -131 -83 -169 -11 -52 -11 -137 1 -171 19 -56 107 -167 122 -155 7 6
10 14 7 19 -3 5 -1 9 4 9 14 0 73 141 88 210 4 19 9 37 9 40 1 3 5 33 10 68 4
34 10 64 14 66 5 4 7 -146 1 -151 -3 -4 -5 -11 -14 -68 -4 -27 -13 -56 -18
-62 -6 -7 -8 -13 -5 -13 3 0 -5 -27 -19 -60 -13 -33 -24 -62 -24 -65 0 -9 55
30 118 83 76 64 101 119 98 213 -3 80 -3 76 -39 194 -26 84 -38 133 -43 175
-3 40 -4 40 -11 40 -5 -1 -13 -6 -20 -13z"/>
<path d="M2784 9446 c-1 -66 -4 -175 -7 -241 -8 -160 14 -233 97 -308 34 -31
183 -107 209 -107 9 0 17 -5 17 -12 0 -6 3 -9 6 -6 3 3 -16 37 -42 74 -64 93
-120 215 -145 314 -12 45 -19 84 -16 86 2 3 19 -33 37 -78 40 -101 110 -238
121 -238 5 0 9 -4 9 -10 0 -21 98 -122 111 -114 23 14 84 176 88 232 6 91 -63
235 -157 328 -49 49 -90 84 -99 84 -3 0 -14 6 -22 14 -17 15 -139 78 -181 94
l-25 10 -1 -122z"/>
<path d="M6031 9471 c-12 -24 -39 -138 -47 -201 -23 -188 23 -373 117 -470 48
-49 129 -86 233 -105 l39 -8 -6 54 c-9 87 -30 161 -72 254 -12 28 -24 55 -25
60 -1 6 -11 22 -21 37 -10 14 -19 29 -19 33 0 4 -9 20 -21 36 -24 34 -15 39
14 7 26 -30 99 -145 116 -183 7 -16 20 -42 28 -57 8 -16 12 -28 9 -28 -3 0 3
-20 14 -45 11 -25 19 -48 19 -50 -1 -16 14 -65 20 -65 15 0 55 158 57 228 4
103 -24 163 -117 254 -39 37 -77 68 -84 68 -7 0 -15 4 -17 8 -1 5 -30 27 -64
49 -33 23 -84 64 -113 91 -43 41 -53 47 -60 33z"/>
<path d="M6864 9227 c-11 -7 -43 -30 -69 -52 -44 -36 -67 -59 -128 -129 -33
-38 -88 -135 -109 -194 -15 -40 -21 -83 -22 -147 -1 -109 18 -154 105 -249
l56 -61 37 78 c21 43 39 83 40 90 1 7 5 18 9 25 5 6 6 12 3 12 -3 0 -1 12 5
28 6 15 13 38 15 52 2 14 6 34 8 45 2 11 8 45 12 75 4 30 9 58 10 63 1 4 2 17
3 29 0 12 4 19 7 15 7 -6 6 -159 0 -193 -6 -32 -19 -108 -22 -129 -1 -11 -14
-53 -28 -94 -14 -41 -26 -78 -26 -83 0 -11 114 76 149 112 71 75 102 164 90
258 -10 75 -12 81 -53 197 -20 55 -38 109 -41 120 -2 11 -9 38 -14 61 -6 23
-9 51 -6 63 4 24 -1 25 -31 8z"/>
<path d="M2009 9153 c-14 -82 -16 -263 -4 -323 4 -19 9 -42 10 -50 2 -8 4 -15
5 -15 1 0 3 -7 5 -15 13 -70 104 -196 164 -229 75 -42 250 -73 244 -44 -1 6
-5 25 -8 42 -19 107 -120 310 -199 400 l-21 24 22 -11 c27 -15 123 -123 123
-139 0 -7 4 -13 8 -13 9 0 112 -209 112 -227 0 -5 6 -16 13 -24 6 -8 11 -13
10 -11 0 2 3 17 8 34 11 39 22 131 22 183 1 131 -58 214 -218 307 -38 23 -94
56 -122 74 -29 19 -56 34 -60 34 -5 0 -28 18 -52 40 -25 22 -45 40 -46 40 -1
0 -8 -35 -16 -77z"/>
<path d="M3466 9019 c-2 -8 -7 -37 -10 -65 -4 -28 -27 -116 -52 -195 -75 -237
-65 -340 46 -449 29 -29 114 -92 148 -109 22 -12 23 -11 13 8 -14 26 -33 73
-37 89 -1 8 -6 21 -10 30 -9 20 -7 16 -22 67 -6 22 -14 54 -18 70 -9 42 -17
241 -10 234 4 -4 8 -19 10 -35 2 -16 9 -58 16 -94 7 -36 13 -69 14 -75 1 -5 5
-16 9 -22 5 -7 6 -13 3 -13 -9 0 45 -142 77 -202 17 -32 35 -58 39 -58 17 0
79 76 115 139 31 54 37 74 37 125 1 198 -95 360 -314 529 -9 7 -23 18 -33 26
-14 11 -17 11 -21 0z"/>
<path d="M5500 8875 c-7 -9 -11 -17 -9 -20 3 -2 10 5 17 15 14 24 10 26 -8 5z"/>
<path d="M3971 8793 c11 -47 17 -88 15 -90 -2 -3 0 -19 5 -36 27 -87 30 -461
6 -627 -36 -247 -146 -545 -268 -728 -16 -24 -29 -45 -29 -47 0 -4 -113 -167
-132 -190 -5 -5 -50 -66 -100 -135 -50 -69 -93 -127 -95 -129 -6 -8 -12 4 -17
34 -13 66 -16 83 -35 147 -44 152 -129 318 -240 468 -57 77 -230 255 -290 300
-19 14 -43 33 -55 43 -33 29 -205 142 -266 175 -119 65 -192 98 -315 147 -38
15 -74 29 -80 32 -5 3 1 -5 15 -16 14 -11 29 -21 33 -21 17 0 294 -169 357
-217 144 -110 237 -195 356 -325 110 -119 272 -421 290 -538 1 -8 5 -26 8 -40
23 -100 29 -155 29 -275 0 -167 -14 -225 -110 -445 -49 -111 -78 -192 -88
-239 -2 -9 -10 -47 -19 -84 -9 -38 -19 -92 -22 -120 -4 -29 -8 -55 -10 -58 -5
-9 -17 -231 -17 -314 0 -74 11 -267 18 -325 2 -19 7 -53 10 -75 2 -22 7 -60
10 -85 3 -25 7 -56 10 -70 2 -14 7 -45 10 -70 4 -25 13 -82 21 -128 8 -45 17
-99 20 -118 3 -20 8 -46 11 -58 2 -11 6 -32 7 -46 2 -14 7 -40 11 -58 4 -19 8
-43 9 -55 2 -12 6 -32 10 -44 11 -35 -7 -34 -62 2 -28 19 -54 35 -57 35 -3 0
-22 11 -43 23 -38 25 -120 70 -207 116 -27 14 -52 28 -55 31 -3 3 -48 27 -100
53 -113 58 -217 113 -324 173 -43 24 -83 44 -87 44 -5 0 -9 5 -9 10 0 6 -5 10
-10 10 -6 0 -36 16 -66 35 -30 19 -59 35 -64 35 -6 0 -10 4 -10 8 0 5 -10 13
-23 19 -37 18 -237 164 -237 174 0 5 -4 9 -10 9 -12 0 -20 7 -125 108 -67 64
-143 149 -209 232 -69 88 -194 307 -251 440 -15 36 -36 85 -47 109 -11 25 -21
52 -23 60 -2 9 -18 59 -35 111 -28 86 -63 215 -76 280 -3 14 -7 32 -9 40 -3 8
-7 33 -10 55 -4 22 -9 49 -13 60 -3 11 -7 27 -7 35 -6 65 -19 129 -26 124 -5
-3 -7 -9 -5 -12 2 -4 7 -39 10 -77 8 -85 15 -149 21 -192 3 -18 7 -48 10 -65
2 -18 8 -51 11 -73 4 -22 9 -49 10 -60 1 -11 5 -31 9 -45 4 -14 8 -34 10 -45
11 -70 101 -363 116 -379 5 -6 9 -16 9 -23 0 -29 100 -233 178 -367 116 -195
324 -430 502 -566 25 -19 47 -38 50 -41 11 -13 160 -118 240 -169 47 -30 87
-57 90 -61 3 -3 12 -9 20 -13 21 -10 44 -24 125 -76 39 -24 86 -53 105 -63 19
-11 54 -32 78 -48 24 -16 45 -29 47 -29 3 0 36 -20 75 -45 39 -25 73 -45 76
-45 2 0 10 -5 17 -10 7 -6 54 -38 106 -72 108 -70 127 -85 193 -149 26 -25 50
-44 53 -41 3 3 5 1 5 -4 0 -6 8 -19 18 -30 50 -53 110 -164 131 -239 20 -74
33 -130 37 -158 2 -15 5 -31 8 -35 2 -4 8 -35 11 -67 4 -33 9 -69 11 -80 13
-69 19 -165 19 -345 0 -282 -11 -359 -62 -470 -58 -124 -156 -239 -278 -324
-74 -52 -176 -106 -200 -106 -8 0 -15 -4 -15 -8 0 -5 -6 -9 -12 -9 -29 -1 -82
-14 -102 -25 -11 -6 -22 -11 -23 -10 -15 10 -47 -6 -89 -46 -83 -79 -124 -94
-267 -97 -98 -2 -137 -8 -198 -27 -79 -26 -228 -102 -270 -138 l-24 -21 37 15
c52 20 175 54 223 61 22 4 53 9 70 11 16 3 94 5 172 6 79 0 146 4 149 9 3 5 9
7 14 4 12 -8 115 49 183 101 31 24 60 44 64 44 3 0 14 7 23 15 10 9 29 18 44
21 141 25 280 70 324 104 14 11 29 20 33 20 10 0 -59 -93 -72 -98 -5 -2 -9 -8
-9 -14 0 -6 -17 -31 -38 -57 -76 -93 -126 -165 -103 -149 29 21 143 131 210
203 54 59 221 278 221 290 0 3 11 21 25 39 14 18 25 35 25 39 0 3 19 38 43 79
48 81 117 222 117 238 0 5 4 10 10 10 5 0 9 3 7 8 -3 9 54 144 59 139 6 -6
-67 -230 -114 -347 -71 -179 -200 -414 -279 -507 -10 -12 -31 -39 -48 -60 -57
-72 -226 -233 -246 -233 -5 0 -9 -4 -9 -8 0 -5 -10 -14 -22 -20 -13 -6 -41
-23 -63 -37 -65 -41 -174 -91 -265 -122 -89 -29 -112 -31 -375 -23 -52 1 -103
-3 -120 -10 -31 -12 -121 -76 -165 -118 -14 -13 -37 -31 -52 -40 -16 -9 -28
-19 -28 -23 0 -4 -24 -15 -53 -25 -52 -18 -198 -22 -257 -9 -78 19 -226 25
-287 13 -58 -11 -77 -16 -80 -18 -2 -2 -6 -3 -10 -4 -27 -6 -117 -46 -168 -74
-33 -19 -69 -38 -80 -43 -35 -16 -111 -71 -80 -58 8 3 106 40 175 66 8 3 20 7
25 8 6 2 28 8 50 13 123 33 229 30 435 -13 92 -19 273 -25 333 -11 15 3 39 8
55 11 38 8 162 57 168 67 3 4 14 8 25 8 10 0 19 3 19 8 0 4 12 13 28 19 108
48 154 61 232 67 77 5 117 10 175 21 11 2 57 13 103 25 46 12 85 20 87 18 9
-9 -166 -197 -225 -240 -82 -61 -141 -79 -416 -132 -7 -1 -18 -7 -26 -14 -8
-6 -23 -13 -34 -15 -10 -1 -23 -5 -29 -8 -12 -7 -84 -32 -102 -35 -7 -1 -40
-9 -75 -17 -35 -9 -83 -18 -108 -21 -25 -3 -56 -8 -70 -11 -14 -3 -58 -8 -98
-12 -40 -3 -75 -10 -78 -14 -3 -5 2 -10 10 -10 28 -2 56 -6 59 -8 11 -10 314
6 331 17 5 3 27 7 48 8 20 2 66 8 100 15 35 6 74 13 88 14 14 1 45 6 70 9 25
4 61 8 80 11 19 3 54 7 77 10 23 3 55 7 70 9 42 6 115 26 143 41 14 7 67 53
117 103 51 49 119 107 150 128 32 22 60 42 63 45 3 3 12 9 20 12 8 4 38 21 65
37 28 16 75 42 105 57 30 16 57 31 58 36 2 4 8 7 14 7 21 0 323 155 365 187
127 97 204 246 248 477 9 49 14 94 11 101 -2 7 -2 16 2 20 4 3 8 25 9 48 1 23
2 42 3 42 1 0 3 21 4 47 2 44 14 79 17 47 1 -8 3 -23 4 -34 14 -98 17 -139 18
-214 0 -47 -2 -104 -6 -126 -3 -22 -9 -58 -12 -80 -9 -51 -44 -153 -63 -183
-9 -13 -23 -37 -31 -53 -30 -54 -85 -115 -151 -165 -79 -61 -155 -106 -164
-97 -3 3 -6 1 -6 -5 0 -7 -3 -11 -7 -10 -5 1 -23 -6 -40 -15 -18 -10 -33 -15
-33 -12 0 12 -124 -58 -150 -85 -33 -33 -45 -83 -36 -135 8 -40 56 -137 109
-216 58 -88 91 -161 88 -197 -1 -18 -13 -69 -27 -114 -14 -44 -24 -82 -21 -84
2 -2 17 17 34 44 84 130 87 168 32 323 -48 134 -53 195 -21 259 50 101 132
153 242 154 200 0 283 -175 180 -378 -26 -49 -78 -126 -100 -146 -3 -3 -21
-25 -40 -50 -19 -25 -41 -53 -49 -62 -29 -31 -41 -47 -41 -54 0 -8 104 66 108
78 2 4 8 8 13 8 11 0 133 121 183 183 l39 48 32 -33 c105 -108 187 -132 502
-143 120 -4 156 -15 296 -90 38 -20 71 -35 73 -32 3 2 -19 25 -47 51 -48 44
-172 112 -219 121 -11 2 -25 7 -30 10 -6 4 -23 9 -37 11 -115 21 -301 98 -371
154 -74 59 -123 154 -152 295 -11 55 -22 108 -24 118 -2 9 0 15 5 11 5 -3 9
-12 9 -20 0 -8 5 -14 12 -14 6 0 8 -3 5 -6 -20 -20 98 -138 234 -234 57 -41
136 -99 175 -131 98 -80 175 -118 357 -177 158 -51 191 -69 274 -147 47 -44
54 -49 93 -67 35 -17 220 -61 227 -55 2 2 -36 27 -85 56 -93 55 -126 83 -182
152 -69 86 -121 126 -243 187 -67 33 -139 72 -160 86 -21 14 -40 26 -41 26 -7
0 -78 64 -118 106 -38 40 -103 134 -92 134 2 0 0 8 -5 18 -10 18 -18 50 -26
102 -2 14 -7 77 -10 140 -10 180 -25 237 -104 403 -83 174 -98 209 -107 258
-10 58 -11 249 -1 249 5 0 5 5 1 12 -4 6 -9 46 -10 87 -3 100 -19 246 -30 284
-3 10 -7 30 -9 45 -2 15 -11 59 -20 97 -9 39 -19 81 -22 95 -12 58 -88 314
-126 430 -22 69 -41 127 -42 130 0 3 -16 52 -35 110 -19 58 -35 107 -35 110
-1 3 -7 25 -14 50 -47 161 -48 342 -3 460 5 14 11 30 12 35 4 15 61 87 95 118
82 75 321 171 480 193 17 2 41 6 55 9 14 3 44 8 66 11 23 2 52 7 64 9 12 2 48
7 79 10 31 3 70 8 86 10 17 2 62 7 100 10 39 4 86 9 105 11 19 2 58 7 86 9 65
6 238 33 284 45 19 5 46 11 60 14 42 8 163 44 205 61 65 26 185 89 185 97 0 4
5 8 10 8 11 0 52 35 130 108 l45 43 -55 -34 c-30 -19 -68 -42 -85 -53 -16 -10
-33 -17 -37 -16 -5 1 -8 -1 -8 -6 0 -4 -12 -13 -27 -19 -50 -22 -161 -62 -185
-67 -13 -3 -34 -8 -48 -11 -14 -3 -50 -7 -80 -10 -30 -2 -55 -5 -55 -5 0 -7
-150 -11 -560 -14 -264 -2 -491 -6 -505 -9 -14 -3 -52 -8 -85 -12 -33 -3 -69
-8 -80 -11 -11 -2 -31 -6 -45 -8 -49 -9 -181 -47 -229 -66 l-50 -19 13 32 c7
18 17 41 21 52 4 11 10 29 12 39 2 11 11 28 20 38 9 10 13 18 9 18 -13 0 99
205 146 268 27 35 48 65 48 67 0 14 213 231 280 284 23 19 48 40 54 45 26 24
95 76 101 76 4 0 13 6 20 13 27 23 40 33 142 100 56 37 106 67 112 67 5 0 11
4 13 8 2 5 64 46 138 91 74 45 188 116 253 157 66 41 123 74 127 74 5 0 10 4
12 9 8 22 394 201 433 201 8 0 15 5 15 12 0 6 3 9 6 6 3 -4 33 9 66 28 33 19
62 34 65 34 15 0 235 155 273 192 128 125 238 287 295 433 14 39 32 84 38 100
7 17 12 32 13 35 0 3 3 12 7 20 3 8 9 29 13 45 4 17 9 35 11 40 20 61 46 223
47 302 1 18 3 33 6 33 7 0 4 337 -4 420 -3 36 -8 84 -10 108 -3 24 -7 60 -11
80 -3 20 -8 51 -10 67 -12 87 -28 171 -32 175 -5 5 4 -127 13 -205 9 -75 11
-431 3 -500 -8 -65 -12 -94 -25 -185 -3 -19 -10 -53 -15 -75 -17 -71 -19 -79
-25 -112 -3 -18 -10 -33 -16 -33 -5 0 -7 -4 -4 -9 6 -8 -14 -68 -54 -161 -133
-310 -373 -540 -679 -655 -152 -56 -293 -114 -390 -161 -62 -30 -117 -54 -121
-54 -5 0 -10 -3 -12 -7 -1 -5 -41 -28 -88 -52 -47 -25 -98 -53 -115 -62 -16
-10 -56 -32 -88 -49 -32 -17 -72 -39 -90 -50 -17 -11 -41 -24 -52 -29 -11 -5
-64 -34 -119 -65 -54 -31 -100 -56 -103 -56 -2 0 -9 -5 -16 -10 -7 -6 -57 -38
-112 -72 -55 -34 -117 -74 -137 -91 -21 -16 -38 -26 -38 -23 0 3 -10 -3 -22
-13 -13 -11 -59 -47 -102 -82 -43 -35 -109 -91 -145 -126 -36 -34 -69 -63 -73
-63 -5 0 -8 -7 -8 -15 0 -8 -4 -15 -8 -15 -5 0 -33 -30 -63 -67 -29 -38 -56
-70 -60 -73 -3 -3 -28 -41 -57 -85 -28 -44 -56 -86 -62 -92 -6 -7 -8 -13 -6
-13 3 0 -8 -23 -24 -50 -17 -28 -30 -53 -30 -55 0 -2 -13 -32 -29 -67 -25 -54
-39 -86 -46 -108 -11 -33 -27 -62 -31 -57 -5 4 -24 78 -38 148 -3 13 -8 35
-11 49 -3 14 -8 36 -10 50 -2 14 -7 39 -10 55 -3 17 -8 46 -11 65 -3 19 -8 44
-10 55 -11 66 -17 149 -19 295 -2 150 1 194 29 334 9 49 48 170 59 184 5 6 7
12 4 12 -7 0 81 197 120 266 42 77 82 147 96 169 6 11 29 47 49 80 21 33 41
65 45 70 4 6 48 71 98 145 68 104 117 163 210 255 101 101 145 140 250 223 6
4 42 31 80 60 39 28 75 55 80 60 6 4 60 44 120 87 121 87 307 225 315 235 3 3
25 21 50 40 130 102 260 236 368 382 54 73 164 257 164 275 0 4 6 19 14 33 18
33 41 90 70 174 17 49 20 65 9 56 -8 -7 -15 -18 -15 -25 0 -22 -127 -265 -163
-310 -4 -5 -31 -41 -59 -80 -119 -159 -261 -297 -435 -421 -76 -54 -139 -102
-141 -106 -2 -4 -9 -8 -16 -8 -7 0 -21 -9 -31 -20 -10 -11 -24 -20 -32 -20 -7
0 -13 -4 -13 -8 0 -5 -10 -14 -22 -21 -35 -18 -170 -105 -193 -123 -5 -4 -73
-49 -150 -100 -77 -51 -141 -96 -143 -100 -2 -5 -10 -8 -17 -8 -8 0 -18 -8
-24 -17 -23 -42 -18 25 6 87 13 33 60 242 68 306 3 27 9 68 11 90 3 21 6 111
6 199 1 183 -6 258 -36 400 -17 82 -115 335 -129 335 -2 0 4 -39 14 -87z"/>
<path d="M4670 8772 c-25 -27 -79 -74 -120 -106 -140 -109 -204 -182 -228
-256 -15 -46 -22 -129 -10 -136 4 -3 6 -10 3 -15 -6 -9 23 -101 56 -174 16
-36 18 -37 20 -15 3 35 4 42 12 65 3 11 8 31 11 45 15 83 97 260 151 325 22
26 20 18 -13 -55 -35 -75 -76 -186 -75 -200 0 -3 -3 -16 -8 -29 -19 -48 -32
-188 -19 -196 11 -7 120 23 135 36 5 5 15 9 23 9 16 0 80 46 103 75 10 11 25
35 34 55 10 19 23 46 30 60 7 14 16 41 19 60 3 19 8 46 11 60 7 28 7 164 1
195 -2 11 -9 40 -15 65 -7 25 -14 53 -16 63 -7 29 -48 117 -54 117 -3 -1 -26
-22 -51 -48z"/>
<path d="M5919 8751 c-41 -56 -101 -156 -115 -191 -3 -8 -10 -24 -14 -35 -46
-108 -56 -259 -24 -358 21 -67 70 -123 161 -185 70 -47 63 -53 88 68 18 89 12
342 -10 408 -2 6 -1 12 4 12 7 0 29 -60 37 -100 2 -8 8 -37 13 -65 11 -55 9
-314 -3 -333 -5 -8 -2 -10 8 -6 9 3 16 12 16 20 0 8 4 14 8 14 13 0 108 152
122 194 27 83 10 175 -53 286 -17 30 -33 57 -37 60 -3 3 -21 30 -40 60 -19 30
-37 57 -41 60 -8 7 -52 92 -55 107 -1 6 -6 19 -11 28 -8 13 -17 6 -54 -44z"/>
<path d="M2752 8750 c-26 -35 -73 -136 -95 -205 -39 -121 -42 -261 -7 -366 24
-75 41 -104 87 -146 45 -41 181 -109 194 -96 11 11 14 142 4 213 -10 77 -12
86 -31 149 -10 31 -17 60 -15 65 1 4 -4 14 -10 22 -6 8 -8 14 -4 14 4 0 2 7
-5 15 -7 8 -9 15 -5 15 4 0 1 8 -6 17 -11 13 -11 15 -1 9 11 -7 50 -82 82
-161 15 -35 25 -78 35 -140 2 -16 6 -40 9 -51 2 -12 5 -46 7 -75 1 -30 4 -58
7 -63 9 -16 94 156 108 219 8 36 6 132 -4 151 -50 100 -59 112 -161 219 -81
85 -123 138 -149 187 l-19 37 -21 -29z"/>
<path d="M1197 8650 c-37 -9 -70 -14 -75 -11 -4 3 14 -17 39 -44 43 -47 139
-195 139 -215 0 -5 6 -15 14 -22 7 -8 21 -28 30 -46 24 -47 111 -129 159 -151
33 -14 62 -18 132 -16 50 1 101 5 115 9 14 3 39 9 55 12 36 6 57 23 32 25 -28
2 -42 7 -146 56 -97 45 -174 95 -236 155 l-50 49 114 -68 c63 -37 117 -68 120
-69 3 0 24 -8 46 -18 55 -25 146 -53 181 -58 28 -3 28 -2 25 41 -1 24 -5 54
-7 65 -3 12 -7 32 -10 46 -10 51 -47 111 -96 155 -28 25 -56 45 -64 45 -8 0
-14 4 -14 10 0 5 -42 22 -92 39 -83 26 -106 29 -218 29 -82 -1 -148 -7 -193
-18z"/>
<path d="M5442 8327 c-10 -23 -25 -49 -33 -57 -8 -8 -22 -27 -31 -41 -9 -14
-35 -48 -58 -75 -76 -89 -80 -94 -80 -104 0 -6 -4 -10 -10 -10 -5 0 -10 -7
-10 -15 0 -8 -4 -15 -8 -15 -17 0 -47 -107 -47 -171 0 -49 6 -79 25 -120 14
-30 28 -55 33 -57 4 -2 7 -8 7 -13 0 -10 70 -118 70 -109 0 3 2 57 4 120 4
110 25 242 48 298 6 15 12 32 14 39 1 6 7 19 13 30 13 19 13 23 -5 -77 -7 -38
-10 -60 -19 -135 -6 -50 -7 -206 -2 -235 6 -30 19 -60 25 -60 18 2 131 72 169
106 78 69 118 238 89 377 -3 15 -8 38 -10 50 -12 72 -135 317 -158 317 -4 0
-16 -19 -26 -43z"/>
<path d="M6945 8278 c-22 -16 -51 -37 -64 -46 -82 -57 -195 -190 -234 -276
-39 -87 -61 -242 -38 -281 3 -5 6 -15 7 -22 3 -17 68 -113 100 -147 26 -27 28
-28 40 -10 7 11 18 25 24 31 35 41 109 257 125 367 12 76 26 52 21 -34 -3 -45
-7 -84 -10 -89 -3 -4 -8 -22 -11 -41 -3 -18 -17 -64 -32 -104 -14 -39 -31 -86
-37 -103 -6 -18 -14 -33 -18 -33 -5 0 -8 -4 -8 -10 0 -16 15 -11 46 15 16 14
32 25 36 25 11 0 46 29 102 86 94 93 111 198 61 379 -9 33 -25 92 -36 130 -11
39 -21 96 -23 128 -3 33 -6 60 -8 62 -2 1 -21 -11 -43 -27z"/>
<path d="M859 8243 c26 -53 34 -82 56 -208 21 -128 39 -192 66 -251 53 -112
134 -161 306 -189 12 -2 36 -6 53 -10 40 -9 35 1 -28 58 -79 73 -127 127 -172
191 -34 51 -82 136 -76 136 2 0 31 -33 64 -74 79 -95 158 -176 202 -206 19
-14 44 -32 54 -42 29 -27 55 -23 62 10 3 15 9 41 14 58 4 17 7 67 6 110 -2 67
-6 86 -31 128 -33 56 -134 161 -165 171 -11 3 -20 10 -20 14 0 4 -16 13 -35
21 -19 8 -35 18 -35 24 0 5 -3 7 -6 4 -3 -4 -25 2 -48 13 -24 10 -54 21 -67
23 -13 3 -24 5 -24 6 0 6 -118 29 -153 30 -27 0 -31 -3 -23 -17z"/>
<path d="M3319 8208 c-1 -2 -3 -21 -5 -43 -7 -70 -17 -114 -57 -235 -12 -36
-22 -67 -22 -70 -1 -3 -7 -32 -14 -64 -16 -70 -10 -161 13 -206 24 -49 79
-119 93 -120 7 0 18 -9 25 -20 7 -11 17 -20 21 -20 5 0 29 -16 53 -37 l45 -36
-31 84 c-17 46 -32 93 -35 104 -2 11 -7 31 -10 45 -4 14 -7 33 -7 43 1 9 -2
17 -6 17 -9 0 -9 196 1 206 4 4 7 -4 8 -17 2 -38 9 -95 24 -174 16 -89 71
-222 114 -275 20 -25 20 -25 36 -5 40 52 115 168 116 181 3 27 4 32 11 39 9 9
-3 142 -17 185 -4 11 -17 46 -27 70 -22 55 -101 161 -167 222 -61 58 -159 134
-162 126z"/>
<path d="M1650 7909 c0 -17 66 -182 89 -223 88 -156 215 -265 350 -301 25 -6
55 -10 66 -8 11 2 35 6 52 8 62 9 158 51 158 68 0 25 -99 122 -177 173 -37 25
-107 65 -155 90 -85 43 -84 49 4 25 39 -11 161 -67 173 -81 3 -3 29 -21 57
-40 29 -19 53 -38 53 -42 0 -5 5 -8 10 -8 6 0 23 -11 38 -25 15 -14 30 -25 34
-25 11 0 -49 168 -77 216 -41 69 -117 125 -191 138 -13 3 -28 7 -34 11 -5 3
-93 8 -194 10 -102 2 -189 6 -194 9 -17 11 -62 14 -62 5z"/>
<path d="M511 7783 c-2 -57 -5 -85 -15 -133 -3 -14 -11 -50 -18 -80 -18 -84
-19 -98 -22 -195 -1 -78 2 -96 22 -135 30 -57 85 -114 142 -147 25 -15 47 -29
50 -32 11 -13 70 -40 70 -32 0 4 -18 45 -41 90 -22 45 -42 91 -44 101 -2 10
-8 27 -14 38 -5 10 -12 31 -15 46 -3 14 -7 34 -10 44 -9 30 -16 76 -21 132 -4
46 -3 50 6 25 21 -63 30 -95 34 -112 5 -26 32 -104 52 -149 9 -21 17 -42 17
-46 1 -4 7 -13 14 -20 6 -6 12 -16 12 -21 0 -9 57 -94 76 -114 9 -10 22 3 56
55 48 73 69 116 74 147 1 11 4 25 5 30 6 22 -13 123 -33 175 -40 102 -112 195
-219 281 -49 40 -158 109 -172 109 -3 0 -6 -26 -6 -57z"/>
<path d="M5966 7562 c-2 -1 -22 -5 -46 -8 -25 -4 -61 -12 -82 -20 -21 -7 -38
-11 -38 -9 0 8 -116 -47 -165 -78 -93 -59 -180 -167 -192 -239 -8 -46 -7 -104
1 -163 4 -27 8 -56 9 -62 0 -7 3 -13 5 -13 11 0 119 64 157 93 60 45 176 166
213 222 17 26 32 45 32 41 0 -17 -43 -106 -52 -106 -5 0 -6 -5 -3 -10 3 -6 -1
-13 -9 -16 -9 -3 -16 -11 -16 -18 0 -14 -125 -136 -195 -191 -27 -21 -54 -43
-60 -47 -9 -8 130 -3 170 6 67 15 84 21 122 43 24 13 54 36 68 51 25 27 72
114 80 149 53 218 89 333 118 371 8 10 -2 12 -52 10 -34 -2 -64 -4 -65 -6z"/>
<path d="M4915 7497 c-146 -124 -238 -258 -273 -397 -2 -8 -6 -52 -9 -96 -5
-73 -3 -88 19 -135 25 -54 126 -169 148 -169 7 0 14 9 17 20 3 11 9 20 14 20
5 0 8 3 7 8 -1 7 7 31 23 67 12 28 49 176 55 222 3 21 6 49 8 63 2 14 5 43 5
65 1 27 4 36 10 26 9 -14 7 -208 -3 -251 -3 -14 -11 -49 -17 -79 -6 -29 -20
-78 -30 -109 -10 -30 -19 -57 -19 -59 0 -10 64 43 124 102 36 36 75 84 87 108
34 65 34 206 0 282 -50 111 -99 277 -101 338 0 25 -10 22 -65 -26z"/>
<path d="M2572 7262 c0 -53 -3 -108 -6 -121 -17 -74 -24 -238 -14 -296 18
-101 88 -178 222 -243 48 -24 89 -42 91 -40 2 2 -12 28 -31 58 -41 64 -104
193 -104 213 0 7 -4 17 -9 23 -4 5 -14 38 -21 74 -6 36 -14 74 -17 85 -11 43
15 -2 31 -55 19 -60 111 -256 130 -275 6 -7 22 -27 36 -45 43 -57 51 -63 65
-48 15 15 78 136 83 158 16 68 17 73 8 125 -29 177 -197 366 -409 459 l-55 25
0 -97z"/>
<path d="M1749 7303 c4 -21 7 -62 6 -90 0 -29 4 -53 8 -53 5 0 5 -6 0 -12 -12
-18 -12 -288 0 -318 40 -101 68 -138 142 -185 49 -31 184 -89 191 -82 2 2 -15
28 -37 58 -23 30 -45 63 -50 74 -5 11 -20 38 -32 60 -20 36 -71 153 -72 165 0
3 -4 11 -8 18 -5 6 -6 12 -3 12 2 0 1 14 -4 30 -5 17 -5 30 0 30 5 0 12 -10
15 -22 12 -40 87 -192 104 -212 9 -10 15 -20 13 -22 -9 -14 124 -164 146 -164
7 0 11 4 7 9 -3 5 -1 12 5 16 8 5 40 66 44 85 1 3 4 10 8 15 7 11 20 75 22
109 4 54 -53 206 -88 235 -9 8 -16 17 -16 22 0 16 -93 99 -163 146 -61 40
-161 88 -223 107 -20 6 -21 4 -15 -31z"/>
<path d="M6918 7325 c-2 -1 -28 -5 -58 -9 -91 -11 -103 -13 -165 -31 -65 -19
-162 -62 -183 -82 -7 -7 -16 -13 -20 -13 -12 0 -98 -84 -126 -122 -43 -60 -55
-108 -51 -195 2 -43 6 -87 9 -98 2 -11 5 -26 5 -32 1 -20 16 -16 92 30 76 45
201 159 265 242 54 71 57 74 43 40 -26 -60 -97 -161 -149 -210 -29 -27 -60
-57 -69 -66 -9 -8 -36 -30 -61 -49 -25 -18 -49 -37 -54 -41 -14 -12 115 -2
218 17 34 6 103 44 134 73 46 45 90 144 126 292 19 73 40 148 47 164 7 17 13
32 14 35 0 3 6 15 13 28 7 12 11 22 10 23 -16 4 -37 6 -40 4z"/>
<path d="M4302 7201 c-88 -85 -183 -240 -216 -352 -28 -100 -24 -236 11 -303
18 -34 111 -136 125 -136 5 0 16 -7 25 -15 8 -9 20 -14 26 -12 8 2 38 77 44
110 1 4 5 26 9 50 4 23 8 49 9 57 3 34 17 156 20 175 2 11 4 34 4 50 1 23 4
27 11 15 5 -8 7 -22 5 -30 -2 -8 0 -22 5 -29 5 -9 5 -22 -1 -33 -7 -12 -6 -18
1 -18 6 0 9 -8 6 -17 -3 -10 -7 -56 -10 -103 -6 -87 -7 -92 -25 -169 -5 -25
-8 -48 -5 -53 13 -21 184 197 176 225 -1 4 1 7 5 7 7 0 15 46 16 95 0 31 -13
106 -23 124 -5 9 -19 39 -33 66 -35 71 -75 146 -86 159 -8 10 -44 101 -47 119
-1 4 -2 16 -3 27 -1 27 -13 25 -49 -9z"/>
<path d="M1165 7164 c-35 -76 -71 -188 -81 -249 -28 -182 19 -358 117 -437 52
-42 192 -101 201 -85 8 15 4 184 -5 207 -3 8 -8 29 -11 45 -8 46 -23 101 -30
114 -4 6 -10 23 -12 38 -3 14 -12 39 -20 55 -25 47 -8 44 19 -4 63 -108 109
-264 111 -380 1 -27 5 -47 10 -45 14 5 52 79 79 154 20 54 25 86 23 135 -4 94
-38 151 -171 284 -135 137 -175 181 -175 193 0 4 -6 14 -14 20 -12 10 -19 3
-41 -45z"/>
<path d="M71 7039 c27 -41 73 -200 83 -284 2 -16 7 -38 11 -47 3 -9 8 -25 10
-35 2 -10 4 -20 5 -23 1 -3 2 -8 1 -12 0 -5 3 -8 9 -8 6 0 9 -3 8 -7 -4 -13
39 -87 66 -113 66 -65 121 -88 261 -105 28 -4 61 -8 75 -10 l25 -4 -29 22
c-35 27 -205 194 -228 224 -37 48 -95 153 -84 153 2 0 22 -24 44 -52 59 -78
169 -189 232 -234 62 -45 107 -67 114 -56 11 18 21 104 21 182 0 81 -2 87 -37
140 -46 69 -62 86 -118 131 -77 61 -201 117 -300 135 -61 11 -81 14 -129 20
l-55 7 15 -24z"/>
<path d="M3813 6681 c-2 -26 -70 -122 -161 -229 -73 -85 -116 -173 -128 -257
-7 -52 17 -145 49 -190 12 -16 21 -32 21 -35 -1 -3 14 -27 32 -55 19 -27 34
-48 35 -45 0 3 2 52 4 110 2 58 6 114 8 125 3 11 8 40 13 65 9 51 11 59 14 63
1 1 3 10 5 20 2 10 7 26 11 35 4 9 8 19 9 22 8 25 25 60 29 60 2 0 0 -15 -4
-32 -5 -18 -12 -49 -15 -68 -3 -19 -8 -42 -10 -50 -17 -62 -21 -299 -6 -329 5
-9 6 -21 4 -27 -2 -6 3 -14 12 -17 8 -4 15 -2 15 3 0 6 5 10 11 10 23 0 149
92 179 130 18 22 29 40 25 40 -4 0 -3 6 2 13 9 11 18 37 30 87 8 35 9 160 1
160 -5 0 -7 4 -4 9 20 31 -89 311 -146 376 -26 30 -33 31 -35 6z"/>
<path d="M7036 6692 c-13 -21 -101 -61 -244 -109 -75 -25 -139 -49 -142 -53
-3 -4 -15 -10 -27 -14 -59 -19 -144 -129 -159 -206 -8 -44 -12 -230 -5 -229 4
0 30 38 59 83 57 88 147 188 222 247 91 72 84 56 -22 -54 -60 -62 -136 -162
-157 -207 -9 -19 -18 -37 -21 -40 -3 -3 -11 -23 -18 -45 -8 -29 -8 -41 0 -46
16 -10 187 -3 227 9 48 16 115 70 174 141 31 38 85 154 102 221 31 122 40 348
11 302z"/>
<path d="M2312 6413 c0 -28 -8 -84 -18 -115 -3 -9 -7 -25 -9 -35 -3 -10 -20
-70 -39 -133 -40 -134 -43 -236 -11 -305 19 -39 137 -165 156 -165 9 0 22 -9
55 -39 28 -25 26 -3 -5 79 -43 111 -70 229 -77 341 -7 116 4 114 21 -5 2 -15
7 -36 10 -46 3 -10 7 -27 9 -37 2 -10 9 -38 16 -63 7 -25 13 -49 14 -55 1 -5
8 -20 14 -32 7 -13 10 -23 7 -23 -3 0 13 -36 36 -80 22 -44 46 -80 52 -80 27
0 132 151 144 206 22 104 -8 220 -93 365 -20 35 -119 137 -174 180 -30 24 -57
46 -60 50 -3 3 -15 9 -27 13 -19 6 -22 3 -21 -21z"/>
<path d="M6230 6419 c-19 -5 -125 -8 -235 -8 -110 1 -207 -1 -215 -3 -64 -18
-101 -35 -137 -64 -40 -33 -88 -105 -99 -151 -4 -13 -10 -23 -16 -23 -5 0 -7
-4 -4 -8 3 -5 -1 -19 -8 -33 -34 -66 -25 -66 84 7 96 64 225 125 291 138 13 2
38 7 54 10 26 5 25 4 -10 -14 -41 -20 -86 -37 -95 -37 -3 0 -24 -12 -47 -26
-24 -15 -46 -27 -51 -27 -26 0 -233 -172 -221 -184 13 -12 149 -70 174 -74 59
-9 126 -4 173 13 130 49 247 161 329 315 29 54 76 171 71 175 -2 1 -19 -2 -38
-6z"/>
<path d="M207 6263 c-1 -1 -20 -4 -42 -7 -38 -6 -68 -12 -105 -21 -8 -2 -23
-4 -32 -4 -26 -1 -22 -11 20 -56 32 -34 110 -146 147 -213 22 -39 61 -89 99
-128 93 -94 189 -111 376 -68 42 10 55 12 64 13 10 1 -1 15 -12 17 -4 0 -20 6
-35 12 -16 7 -34 12 -40 12 -7 0 -23 7 -35 16 -12 8 -22 13 -22 9 0 -7 -124
60 -176 96 -41 28 -124 105 -124 115 0 2 25 -14 55 -36 30 -22 55 -38 55 -35
0 3 15 -5 33 -18 17 -14 50 -32 72 -42 22 -9 48 -21 59 -27 41 -22 144 -50
191 -52 32 -1 32 -3 20 74 -24 156 -74 223 -218 290 -34 16 -73 31 -87 34 -14
2 -27 5 -30 6 -3 2 -9 2 -14 1 -4 -1 -14 3 -21 9 -9 8 -15 8 -20 0 -3 -6 -11
-7 -17 -4 -9 6 -156 12 -161 7z"/>
<path d="M1491 6132 c-6 -11 -7 -22 -4 -26 3 -3 1 -6 -5 -6 -7 0 -11 -3 -10
-7 2 -9 -22 -114 -30 -127 -11 -20 -16 -246 -6 -286 4 -14 7 -35 8 -47 0 -13
5 -23 9 -23 5 0 6 -4 2 -9 -3 -5 -1 -12 5 -16 5 -3 10 -15 10 -26 0 -10 5 -19
10 -19 6 0 9 -3 8 -7 -5 -17 34 -73 72 -105 55 -47 214 -103 235 -82 7 8 12
22 11 32 -2 9 -7 40 -10 67 -9 67 -25 124 -44 160 -9 17 -15 31 -14 32 3 5
-12 41 -49 115 -21 43 -39 81 -39 85 1 18 75 -88 114 -161 34 -64 84 -213 88
-260 1 -14 9 -28 16 -31 9 -3 12 0 9 8 -3 7 1 21 9 32 8 10 14 24 14 31 0 7 5
25 11 41 16 39 22 78 22 150 0 51 -6 72 -33 120 -39 69 -77 107 -208 207 -111
85 -139 110 -169 149 -21 27 -22 27 -32 9z"/>
<path d="M4755 5854 c-33 -8 -71 -17 -85 -20 -14 -4 -31 -7 -37 -7 -7 0 -13
-5 -13 -10 0 -6 -3 -8 -6 -5 -8 8 -105 -36 -167 -76 -90 -57 -187 -167 -203
-230 -3 -14 -9 -28 -13 -31 -9 -5 -6 -118 4 -160 4 -16 8 -40 9 -52 0 -13 4
-23 9 -23 4 0 7 -9 7 -20 0 -17 3 -18 25 -8 14 6 25 16 25 21 0 6 3 8 6 4 13
-13 162 135 224 223 13 19 27 37 30 40 4 3 17 24 30 47 13 24 26 41 28 38 6
-5 -46 -125 -59 -135 -3 -3 -13 -19 -22 -36 -20 -38 -53 -78 -144 -173 -40
-41 -73 -76 -73 -77 0 -2 145 30 196 45 89 24 158 91 197 187 15 40 38 160 52
269 3 28 11 68 17 90 6 22 12 45 14 50 1 6 5 22 9 38 4 15 6 27 4 26 -2 -1
-31 -7 -64 -15z"/>
<path d="M6685 5827 c-16 -5 -105 -11 -196 -12 -211 -4 -261 -11 -334 -48 -74
-37 -118 -97 -169 -234 l-34 -93 32 22 c17 12 33 25 36 28 10 10 128 90 134
90 4 0 25 12 48 26 45 29 167 74 195 73 10 0 -18 -18 -62 -40 -85 -42 -90 -45
-175 -100 -54 -36 -170 -144 -170 -159 0 -12 111 -58 170 -71 72 -15 126 -6
210 36 101 51 199 150 262 265 30 54 90 209 86 219 -2 4 -16 4 -33 -2z"/>
<path d="M5160 5759 c-41 -13 -84 -42 -125 -84 -31 -33 -75 -90 -75 -99 0 -3
-14 -28 -30 -57 l-31 -52 33 20 c61 36 73 42 138 67 111 42 184 59 298 72 55
6 47 -11 -10 -21 -55 -10 -46 -8 -161 -45 -101 -32 -178 -73 -241 -126 -34
-30 -35 -32 -18 -48 10 -9 23 -16 28 -16 6 0 19 -8 30 -18 28 -26 118 -62 167
-67 143 -15 337 89 463 250 32 40 104 155 104 166 0 3 -32 6 -71 7 -39 1 -79
7 -90 12 -10 6 -19 9 -19 6 0 -2 -26 2 -58 9 -105 25 -116 26 -207 30 -49 3
-106 0 -125 -6z"/>
<path d="M530 5487 c-3 -3 -30 -8 -60 -12 -30 -4 -58 -9 -61 -10 -14 -9 -111
-19 -175 -19 -69 1 -70 0 -66 -23 2 -13 7 -23 11 -23 4 0 13 -16 21 -35 8 -19
17 -35 22 -35 4 0 8 -5 8 -11 0 -12 46 -74 92 -124 15 -16 28 -34 28 -38 0 -5
4 -6 9 -3 5 3 11 -1 15 -9 7 -20 129 -97 187 -118 69 -26 131 -34 190 -24 29
4 135 54 152 72 7 6 22 18 35 27 21 14 22 17 7 32 -28 27 -104 77 -135 88 -17
5 -30 14 -30 19 0 5 -7 9 -15 9 -8 0 -23 5 -33 10 -9 6 -69 29 -132 50 -106
37 -111 39 -60 34 53 -5 165 -28 165 -34 0 -1 7 -3 15 -5 8 -1 33 -11 55 -20
22 -10 45 -19 52 -20 6 -2 42 -19 79 -39 37 -20 68 -35 69 -34 6 6 -84 152
-117 192 -19 22 -59 54 -89 71 -46 25 -68 30 -144 33 -49 2 -92 2 -95 -1z"/>
<path d="M2120 5487 c0 -2 6 -20 14 -38 15 -36 25 -87 31 -159 4 -50 13 -131
20 -186 15 -122 82 -221 179 -267 57 -27 87 -35 188 -52 l43 -7 -55 54 c-72
70 -108 113 -122 143 -6 14 -14 25 -18 25 -10 0 -86 150 -94 185 -7 29 -7 29
8 10 8 -11 16 -25 16 -30 0 -6 13 -26 30 -45 16 -19 29 -39 30 -43 0 -10 50
-75 100 -131 48 -53 150 -137 159 -131 7 4 34 85 36 105 0 3 4 11 8 18 5 6 6
12 4 12 -3 0 -1 15 3 34 9 41 -5 129 -27 165 -42 69 -69 108 -89 126 -40 40
-111 95 -122 95 -6 0 -12 3 -14 8 -13 30 -328 135 -328 109z"/>
<path d="M1102 4738 c-52 -9 -139 -47 -173 -76 -13 -11 -51 -43 -84 -71 -33
-28 -64 -51 -68 -51 -5 0 -5 -4 -2 -10 3 -5 1 -10 -5 -10 -6 0 -23 -11 -37
-24 -15 -14 -42 -33 -62 -43 -56 -28 -62 -37 -38 -53 108 -67 276 -131 350
-134 9 0 17 -3 17 -6 0 -6 97 -4 151 3 74 10 149 41 188 78 36 33 101 128 105
154 1 6 8 20 14 33 11 19 10 22 -5 23 -10 0 -27 3 -38 5 -29 8 -168 11 -180 5
-5 -3 -21 -6 -35 -7 -51 -3 -193 -33 -232 -49 -10 -4 -18 -4 -18 -1 0 9 120
63 160 72 50 11 51 11 100 19 64 10 97 13 168 16 80 2 72 14 -52 75 -102 50
-161 64 -224 52z"/>
<path d="M4128 4655 c-2 -2 -25 -5 -53 -8 -98 -11 -197 -58 -249 -118 -31 -37
-96 -178 -96 -209 0 -15 150 -11 212 6 27 7 48 11 48 9 0 -2 17 3 38 12 20 8
38 15 40 13 3 -2 89 28 119 42 11 6 27 8 34 6 18 -6 -134 -83 -206 -104 -73
-22 -73 -22 -110 -29 -16 -3 -43 -8 -60 -12 -16 -3 -41 -7 -53 -9 -38 -4 -35
-10 15 -29 27 -10 53 -21 58 -25 6 -4 28 -13 50 -20 94 -31 167 -30 237 2 72
33 132 85 209 179 59 73 165 169 187 169 27 0 9 19 -41 43 -68 32 -179 67
-237 73 -57 7 -139 12 -142 9z"/>
<path d="M1755 4438 c-22 -5 -49 -10 -60 -12 -59 -11 -206 -83 -274 -133 l-33
-26 48 -24 c26 -13 59 -34 74 -46 15 -12 40 -31 54 -41 15 -11 39 -30 54 -43
40 -34 141 -103 152 -103 6 0 10 -5 10 -11 0 -5 4 -8 9 -4 5 3 12 1 16 -4 5
-9 73 -24 115 -25 60 -3 150 34 248 101 l63 43 -83 1 c-173 2 -290 22 -393 68
-46 20 -64 38 -22 22 13 -5 37 -12 53 -15 16 -3 40 -7 54 -10 123 -25 328 -25
393 -1 16 7 16 10 -5 44 -12 20 -27 45 -32 55 -43 78 -118 138 -195 158 -51
13 -199 17 -246 6z"/>
<path d="M2417 4004 c-2 -2 -21 -6 -42 -10 -111 -17 -320 -104 -251 -104 9 0
55 -41 103 -91 49 -50 118 -122 155 -160 47 -49 86 -78 133 -100 58 -28 73
-31 133 -26 75 6 97 12 197 55 75 33 75 33 -30 52 -69 13 -181 43 -220 60 -11
4 -35 14 -52 22 -18 7 -33 17 -33 21 0 5 -3 6 -8 3 -4 -2 -23 9 -42 25 l-35
29 56 -24 c62 -27 169 -61 182 -58 4 1 7 -1 7 -6 0 -4 10 -7 23 -8 12 0 37 -4
56 -8 35 -7 191 -17 191 -12 0 13 -34 114 -42 124 -6 6 -8 12 -4 12 11 0 -46
84 -73 108 -33 30 -114 68 -177 83 -44 11 -219 21 -227 13z"/>
</g>
</svg>
