<?xml version="1.0" encoding="UTF-8" standalone="no"?>
<svg
   viewBox="0 0 266 335"
   class="roots-wrapper"
   version="1.1"
   id="svg1361"
   sodipodi:docname="logo-with-text.svg"
   width="266"
   height="335"
   inkscape:version="1.1.1 (c3084ef, 2021-09-22)"
   xmlns:inkscape="http://www.inkscape.org/namespaces/inkscape"
   xmlns:sodipodi="http://sodipodi.sourceforge.net/DTD/sodipodi-0.dtd"
   xmlns="http://www.w3.org/2000/svg"
   xmlns:svg="http://www.w3.org/2000/svg">
  <defs
     id="defs1365" />
  <sodipodi:namedview
     id="namedview1363"
     pagecolor="#ffffff"
     bordercolor="#666666"
     borderopacity="1.0"
     inkscape:pageshadow="2"
     inkscape:pageopacity="0.0"
     inkscape:pagecheckerboard="0"
     showgrid="false"
     width="266px"
     inkscape:zoom="1.2504348"
     inkscape:cx="47.183588"
     inkscape:cy="297.09666"
     inkscape:window-width="1296"
     inkscape:window-height="969"
     inkscape:window-x="0"
     inkscape:window-y="25"
     inkscape:window-maximized="0"
     inkscape:current-layer="svg1361" />
  <path
     class="st0"
     d="M 243.4859,51.421295 C 217.65792,14.626155 170.41477,-6.0751749 125.89719,1.5823751 c 16.3534,-0.0649 34.19937,1.42767 47.04846,12.7193099 16.48319,14.66614 22.71305,37.05471 26.93119,57.885827 2.92025,10.51289 12.45973,16.02892 20.18217,22.97262 2.92025,2.59578 2.53088,7.268178 -0.77873,9.409698 -1.49258,0.97341 -2.92025,2.01172 -4.28304,3.11493 -2.3362,1.94683 -2.59577,5.38624 -0.58405,7.65754 0.64895,0.71384 1.29789,1.42768 1.88194,2.14152 -0.45426,1.1681 -1.36278,3.56919 -1.81704,4.80219 1.94683,2.79046 1.68725,5.51602 0.32447,7.98201 -1.36278,2.59578 -0.90852,5.7756 0.97342,7.98201 2.07662,2.4011 3.82877,5.06177 4.34792,8.30649 0.12979,5.8405 -4.99687,11.681 -11.03205,11.6161 -2.3362,0.12979 -4.73729,0 -7.07349,-0.12978 -2.59578,-0.19469 -5.12666,-0.51916 -7.65754,-0.77874 -26.99609,-1.29789 -42.70054,14.79593 -51.2666,29.39718 -7.85223,13.36825 -1.233,30.69506 13.62783,35.36746 0.0649,0 0.19468,0.0649 0.25957,0.0649 9.66927,2.53088 19.98749,3.30961 29.98123,2.01172 0,0 0.19468,0 0.51916,-0.0649 0.64894,-0.12979 2.01172,-0.32447 3.82877,-0.71384 2.72556,-0.51915 5.45113,-1.23299 8.1118,-2.07662 0.32447,-0.12979 0.71384,-0.25958 1.10321,-0.32447 0.51915,-0.19469 1.1032,-0.32447 1.68725,-0.51916 h 0.0649 c 4.86708,-1.62236 10.51289,-3.82877 16.2236,-6.87881 7.33307,-3.95856 14.79593,-9.21501 20.89601,-16.2885 1.55747,-1.81704 3.05004,-3.76388 4.41282,-5.8405 0,-0.0649 0.0649,-0.0649 0.0649,-0.12979 8.63096,-12.26504 15.05551,-26.02266 18.62471,-40.55901 8.30648,-33.81 1.42767,-71.059398 -19.01407,-99.288475 z"
     data-layer-id="9284786309055"
     style="fill:#333333;stroke-width:0.648944"
     id="path1255" />
  <path
     class="st1"
     d="m 104.35224,22.024115 c -0.12979,-6.10007 4.15325,-11.09694 9.02033,-14.2767699 -0.19469,4.9319699 3.69898,9.0852199 2.92025,14.0820899 -0.51916,3.4394 -3.69899,5.38624 -6.22987,7.33307 1.75215,-4.28303 2.72557,-8.95543 2.20641,-13.62783 -0.71384,4.6075 -1.23299,9.40969 -3.82877,13.43315 -1.88194,-1.94684 -4.08835,-4.08835 -4.08835,-6.94371 z"
     data-layer-id="5803672209055"
     style="fill:#1f9401;stroke-width:0.648944"
     id="path1257" />
  <path
     class="st1"
     d="m 163.27638,35.587055 c -0.12979,-6.10008 4.15325,-11.09695 9.02033,-14.27678 -0.19468,4.93198 3.69898,9.08522 2.92025,14.08209 -0.51916,3.43941 -3.69898,5.38624 -6.22987,7.33308 1.75215,-4.28304 2.72557,-8.95544 2.20641,-13.62783 -0.71383,4.6075 -1.23299,9.40969 -3.82877,13.43314 -1.88194,-1.94683 -4.08835,-4.02345 -4.08835,-6.9437 z"
     data-layer-id="2482905509055"
     style="fill:#1f9401;stroke-width:0.648944"
     id="path1259" />
  <path
     class="st1"
     d="m 69.374144,13.198475 c 5.32135,1.94683 10.70759,5.64582 12.13526,11.42142 0.84363,2.85535 -0.77873,5.51603 -2.01172,7.98201 -3.76388,-3.05003 -5.45114,-7.65754 -7.0086,-12.13525 0.25958,4.73729 2.53088,8.95543 5.38624,12.65441 -2.98515,-1.1681 -6.48945,-2.27131 -7.85223,-5.45113 -2.07662,-4.6724 0.77873,-9.66927 -0.64895,-14.47146 z"
     data-layer-id="7651310809055"
     style="fill:#1f9401;stroke-width:0.648944"
     id="path1261" />
  <path
     class="st1"
     d="m 86.571174,26.696515 c 4.6724,2.98515 8.89054,7.46286 9.3448,13.23846 0.38936,3.17983 -1.81705,5.64582 -3.82877,7.78734 -2.79047,-3.95856 -3.5692,-8.76075 -4.21814,-13.43315 -0.64895,4.73729 0.64894,9.40969 2.66067,13.69272 -2.53088,-1.81704 -5.64582,-3.5043 -6.48944,-6.81391 -1.10321,-5.06177 2.72556,-9.47459 2.53088,-14.47146 z"
     data-layer-id="5504459809055"
     style="fill:#1f9401;stroke-width:0.648944"
     id="path1263" />
  <path
     class="st1"
     d="m 118.04497,31.758285 c 2.59577,4.93197 3.24472,11.29163 0.38936,16.2236 -1.49257,2.66068 -4.6075,3.43941 -7.33307,4.08835 -0.12979,-4.73729 1.75215,-9.08522 3.82877,-13.23846 -3.11493,3.5043 -4.54261,8.04691 -5.32134,12.58952 -1.1032,-2.98514 -2.85535,-6.35966 -1.42768,-9.60438 1.94684,-4.47771 7.13839,-6.10007 9.86396,-10.05863 z"
     data-layer-id="147339709055"
     style="fill:#1f9401;stroke-width:0.648944"
     id="path1265" />
  <path
     class="st2"
     d="m 174.89249,44.802065 c -5.06177,2.85535 -9.73417,7.72243 -9.92885,13.82251 -0.12979,2.85536 1.88194,4.996867 3.63409,7.008597 2.79046,-3.82877 3.82877,-8.436277 4.47771,-13.108677 0.64895,4.6724 -0.90852,9.279907 -2.92025,13.433147 2.66067,-1.81704 6.03519,-3.56919 6.74902,-7.073487 1.03831,-4.86708 -2.53088,-9.15012 -2.01172,-14.08209 z"
     data-layer-id="6698533309055"
     style="fill:#25ba0b;stroke-width:0.648944"
     id="path1267" />
  <path
     class="st1"
     d="m 69.309254,32.861485 c 1.62236,4.60751 6.74902,6.74902 8.24159,11.35653 1.10321,3.5043 -1.03831,6.68412 -2.66067,9.60437 -0.12979,-4.6724 -0.90852,-9.40969 -3.69898,-13.30336 1.62236,4.41283 2.92025,9.08522 2.14152,13.82252 -2.66068,-1.03831 -5.71071,-2.3362 -6.74903,-5.25645 -2.2713,-5.38624 -0.38936,-11.55121 2.72557,-16.22361 z"
     data-layer-id="1427498509055"
     style="fill:#1f9401;stroke-width:0.648944"
     id="path1269" />
  <path
     class="st1"
     d="m 27.9715,36.690255 c 5.58092,-1.55746 12.32994,-1.68725 16.87255,2.46599 2.14152,1.88194 2.27131,4.86708 2.59578,7.46286 -4.60751,-0.51915 -8.56607,-3.05004 -12.39484,-5.51603 2.92025,3.5692 7.20328,5.45114 11.42142,6.94371 -3.11493,0.64894 -6.61923,1.81704 -9.60437,0.0649 -4.28304,-2.66067 -4.86709,-8.43627 -8.89054,-11.42142 z"
     data-layer-id="3105632209055"
     style="fill:#1f9401;stroke-width:0.648944"
     id="path1271" />
  <path
     class="st1"
     d="m 140.43354,59.208625 c 1.94684,-5.71071 -0.45426,-11.6161 -3.82877,-16.22361 -1.49257,4.80219 -6.81391,7.46286 -7.52775,12.58952 -0.45426,3.30962 1.81704,6.100077 3.5043,8.695857 -0.19468,-4.477717 0.12979,-9.150117 2.2713,-13.173567 -0.84362,4.47771 -1.75215,9.02032 -0.71383,13.498037 2.53088,-1.1681 5.45113,-2.53088 6.29475,-5.386237 z"
     data-layer-id="4352222209055"
     style="fill:#1f9401;stroke-width:0.648944"
     id="path1273" />
  <path
     class="st1"
     d="m 41.14507,54.471335 c 4.6075,1.55746 9.66927,-0.32448 14.08209,1.81704 3.24472,1.55747 4.02345,5.451127 5.06176,8.501167 -3.50429,-2.92025 -7.26817,-5.905387 -11.94057,-6.294757 4.28303,1.75215 8.37138,4.088347 11.16184,7.852227 -2.66067,1.23299 -5.7756,2.46599 -8.69585,1.1032 -5.32134,-2.2713 -8.1767,-7.722427 -9.66927,-12.978877 z"
     data-layer-id="9096869509055"
     style="fill:#1f9401;stroke-width:0.648944"
     id="path1275" />
  <path
     class="st1"
     d="m 146.7283,68.942782 c -1.49257,4.60751 -5.25644,7.72244 -9.02032,10.38311 3.30961,-0.25957 7.20328,-0.12979 9.53948,-2.92025 3.11493,-3.76387 2.2713,-9.215 5.06177,-13.17357 -5.77561,0.12979 -12.20016,1.88194 -15.44488,7.0735 -1.55747,2.40109 -0.84363,5.32134 -0.45426,7.98201 4.41282,-1.94683 7.72244,-5.45113 10.31821,-9.3448 z"
     data-layer-id="2646748909056"
     style="fill:#1f9401;stroke-width:0.648944"
     id="path1277" />
  <path
     class="st1"
     d="m 143.09422,10.602695 c -4.08835,2.66067 -7.98202,6.74902 -8.04691,11.87568 -0.0649,2.46599 1.75215,4.21814 3.17982,5.97029 2.3362,-3.30961 3.17983,-7.26818 3.37451,-11.29163 0.90853,3.95856 -0.38936,7.85223 -2.01172,11.48631 2.2713,-1.62236 5.19155,-3.24472 5.58092,-6.29476 0.64894,-4.02345 -2.3362,-7.59264 -2.07662,-11.74589 z"
     data-layer-id="2371982509056"
     style="fill:#1f9401;stroke-width:0.648944"
     id="path1279" />
  <path
     class="st1"
     d="m 158.73377,76.405642 c -1.55746,2.4011 -0.84362,5.32135 -0.45426,7.98202 4.41282,-1.88194 7.72244,-5.38624 10.31822,-9.2799 -1.49257,4.6075 -5.25645,7.72243 -9.02033,10.3831 3.30962,-0.25957 7.20328,-0.12978 9.53948,-2.92025 3.11493,-3.76387 2.27131,-9.215 5.06177,-13.17356 -5.77561,0.12978 -12.20015,1.81704 -15.44488,7.00859 z"
     data-layer-id="926506109056"
     style="fill:#1f9401;stroke-width:0.648944"
     id="path1281" />
  <path
     class="st1"
     d="m 12.72131,56.288375 c 5.06176,2.66067 10.12353,7.008597 10.77247,13.043777 0.38937,2.92025 -1.49257,5.25645 -3.11493,7.39797 -3.24472,-3.69899 -4.34793,-8.43628 -5.64581,-12.97889 0,4.80219 1.75215,9.2799 4.08834,13.36825 -2.85535,-1.62236 -6.35965,-3.17982 -7.26817,-6.61923 -1.233,-4.80219 1.88194,-9.409687 1.1681,-14.211877 z"
     data-layer-id="516808909056"
     style="fill:#1f9401;stroke-width:0.648944"
     id="path1283" />
  <path
     class="st1"
     d="m 64.117704,68.488522 c 5.19155,2.01173 10.25332,5.77561 11.68099,11.48632 0.90853,2.98514 -0.84362,5.7756 -2.40109,8.1118 -3.43941,-3.30961 -5.06177,-7.85222 -6.42455,-12.26505 0.19468,4.7373 2.3362,9.02033 4.93198,12.8491 -2.98515,-1.36278 -6.74902,-2.72556 -7.85223,-6.22986 -1.42768,-4.60751 1.10321,-9.27991 0.0649,-13.95231 z"
     data-layer-id="6259586309056"
     style="fill:#1f9401;stroke-width:0.648944"
     id="path1285" />
  <path
     class="st1"
     d="m 101.75647,86.658962 c -0.84363,-5.90539 2.72556,-11.29163 6.81391,-15.18529 0.58405,5.06176 5.38624,8.69585 4.99687,13.9523 -0.25958,3.30962 -2.98514,5.58092 -5.12666,7.78733 0.97342,-4.21814 1.55747,-8.63096 0.71384,-12.97888 -0.51916,4.34792 -0.51916,8.82564 -2.27131,12.97888 -2.2713,-1.62236 -4.80218,-3.5043 -5.12665,-6.55434 z"
     data-layer-id="7503013609056"
     style="fill:#1f9401;stroke-width:0.648944"
     id="path1287" />
  <path
     class="st1"
     d="m 28.36087,88.670692 c -2.85536,-5.38624 -1.1681,-11.74589 1.55746,-16.87255 2.20641,4.54261 7.65754,6.55434 9.08522,11.48631 0.90852,3.24472 -1.03831,6.35966 -2.40109,9.15012 -0.32447,-4.54261 -1.29789,-9.15012 -4.08835,-12.8491 1.68725,4.28303 3.17983,8.76075 2.53088,13.43315 -2.46599,-0.97342 -5.38624,-1.81705 -6.68412,-4.34793 z"
     data-layer-id="3284197509056"
     style="fill:#1f9401;stroke-width:0.648944"
     id="path1289" />
  <path
     class="st1"
     d="m 176.25527,84.971712 c -3.89367,3.24472 -9.79906,2.66067 -13.17357,6.61923 -2.14152,2.53088 -1.68725,6.10008 -1.68725,9.215008 2.33619,-4.023458 5.19155,-7.787328 9.2799,-10.058638 -3.24472,3.30962 -6.74902,6.61923 -7.98202,11.291628 2.85536,0.25958 6.10008,0.51916 8.30649,-1.62236 4.54261,-3.763868 5.64582,-9.928838 5.25645,-15.444868 z"
     data-layer-id="4634071909056"
     style="fill:#1f9401;stroke-width:0.648944"
     id="path1291" />
  <path
     class="st1"
     d="m 57.82294,91.266472 c 4.867084,3.11493 9.474584,7.85222 9.539484,13.952298 0.0649,2.85536 -1.94684,5.06177 -3.76388,7.0086 -2.85535,-3.95856 -3.569194,-8.76075 -4.477714,-13.433148 -0.38937,4.737298 0.90852,9.409688 2.920244,13.692728 -2.660674,-1.81705 -6.035184,-3.63409 -6.619234,-7.13839 -0.84362,-4.86708 2.59578,-9.215008 2.4011,-14.082088 z"
     data-layer-id="6859311709056"
     style="fill:#1f9401;stroke-width:0.648944"
     id="path1293" />
  <path
     class="st1"
     d="m 0.002,96.912282 c 5.51603,-1.42767 12.07036,-1.88193 16.74276,2.01173 2.3362,1.817038 2.59578,4.867078 2.92025,7.592648 -4.80219,-0.51916 -9.02032,-2.92025 -12.7842,-5.77561 2.98514,3.76388 7.39796,5.77561 11.87568,7.13839 -3.24472,0.77874 -6.9437,2.01173 -9.99374,0 C 4.73929,105.15388 3.76588,99.897432 0.002,96.912282 Z"
     data-layer-id="7609867309056"
     style="fill:#1f9401;stroke-width:0.648944"
     id="path1295" />
  <path
     class="st1"
     d="m 153.86669,108.26881 c 4.41282,-2.20641 9.60438,-0.0649 14.21188,-1.75215 -1.49257,5.45113 -4.6075,11.03205 -10.25332,13.04378 -2.79046,1.1032 -5.71071,-0.19468 -8.1767,-1.49257 2.92025,-3.95856 7.39797,-6.03518 11.81079,-7.91712 -4.80219,0.71384 -8.95543,3.30961 -12.58952,6.42455 1.03831,-2.98515 1.81704,-6.74903 4.99687,-8.30649 z"
     data-layer-id="2535680609056"
     style="fill:#1f9401;stroke-width:0.648944"
     id="path1297" />
  <path
     class="st1"
     d="m 37.44609,98.664432 c 2.72556,4.023458 7.91712,5.516028 10.25332,9.863958 1.68725,3.17982 0.0649,6.68412 -1.03832,9.79906 -0.97341,-4.47772 -2.40109,-8.95544 -5.7756,-12.26505 2.20641,4.08835 4.34793,8.30648 4.21814,13.10867 -2.72557,-0.58405 -5.8405,-1.23299 -7.39797,-3.82877 -3.17982,-5.06176 -2.14151,-11.35652 -0.25957,-16.677868 z"
     data-layer-id="5246763509056"
     style="fill:#1f9401;stroke-width:0.648944"
     id="path1299" />
  <path
     class="st1"
     d="m 122.52268,115.73167 c 1.62236,-2.92025 3.37451,-6.55434 7.0735,-7.33307 4.67239,-0.84363 9.15011,1.88194 13.82251,1.36278 -2.53088,4.93198 -6.68413,9.66927 -12.45973,10.57779 -3.05004,0.64895 -5.64582,-1.29789 -7.98202,-2.85535 3.43941,-3.5692 8.37138,-4.47772 12.97889,-5.64582 -4.73729,-0.12979 -9.3448,1.49257 -13.43315,3.89367 z"
     data-layer-id="3338616209056"
     style="fill:#1f9401;stroke-width:0.648944"
     id="path1301" />
  <path
     class="st1"
     d="m 97.473434,137.73088 c 5.256446,-2.85536 11.745886,-1.55747 16.742766,1.23299 -4.60751,2.07663 -6.29476,7.78734 -11.22674,9.3448 -3.244716,1.03831 -6.359646,-0.77873 -9.150116,-2.07662 4.47772,-0.51916 8.955436,-1.55747 12.524626,-4.41282 -4.21814,1.62236 -8.501166,3.37451 -13.173566,2.85535 0.77873,-2.59577 1.62236,-5.58092 4.28303,-6.9437 z"
     data-layer-id="5843213409056"
     style="fill:#1f9401;stroke-width:0.648944"
     id="path1303" />
  <path
     class="st1"
     d="m 15.1873,142.01391 c 4.47771,-1.81704 7.0086,-6.68412 11.81078,-7.91712 3.43941,-0.84363 6.48945,1.42768 9.3448,3.05004 -4.54261,0.0649 -9.21501,0.45426 -13.17357,2.98514 4.41282,-1.29789 8.95543,-2.2713 13.49804,-1.36278 -1.03831,2.46599 -2.14151,5.19155 -4.80218,6.29476 -5.58093,2.40109 -11.94058,0.19468 -16.67787,-3.05004 z"
     data-layer-id="7327578909056"
     style="fill:#1f9401;stroke-width:0.648944"
     id="path1305" />
  <path
     class="st1"
     d="m 52.69628,154.9928 c 4.21813,2.3362 6.10007,7.52775 10.707584,9.3448 3.30961,1.29788 6.61923,-0.58405 9.60437,-1.88194 -4.47771,-0.64895 -9.15011,-1.55747 -12.719314,-4.60751 4.153254,1.88194 8.566074,3.37451 13.238474,3.05004 -0.71384,-2.53088 -1.49257,-5.38624 -3.95856,-6.81391 -5.25645,-3.11494 -11.810794,-1.75215 -16.872554,0.90852 z"
     data-layer-id="1911591509056"
     style="fill:#1f9401;stroke-width:0.648944"
     id="path1307" />
  <path
     class="st2"
     d="m 89.621214,23.970955 c -3.63409,-4.93198 -2.79046,-11.48632 -0.84363,-16.8725599 2.72557,3.9585599 7.91712,5.3213499 10.31821,9.5394799 1.752146,3.17983 0.19469,6.81392 -0.77873,9.99375 -1.03831,-4.41282 -2.59578,-8.89054 -5.97029,-12.13526 2.3362,3.95856 4.34793,8.24159 4.47772,12.91399 -2.53088,-0.64894 -5.51603,-1.03831 -7.20328,-3.4394 z"
     data-layer-id="1234701509056"
     style="fill:#25ba0b;stroke-width:0.648944"
     id="path1309" />
  <path
     class="st2"
     d="m 124.6642,29.227395 c 2.98514,-3.4394 3.76388,-8.04691 5.06176,-12.26504 -0.0649,4.73729 -1.62236,9.21501 -3.89366,13.30336 2.66067,-1.68726 6.10007,-3.17983 7.0086,-6.48945 1.36278,-4.86708 -1.94684,-9.53948 -1.233,-14.4065599 -5.25645,2.6606699 -10.31821,7.2681699 -10.64268,13.4980399 0.19468,2.40109 1.1032,5.7756 3.69898,6.35965 z"
     data-layer-id="5564748409056"
     style="fill:#25ba0b;stroke-width:0.648944"
     id="path1311" />
  <path
     class="st2"
     d="m 50.61966,21.634755 c 3.17982,3.56919 8.37138,4.47771 11.291634,8.30648 2.14151,2.98515 0.90852,6.81392 0.38936,10.05864 -1.62236,-4.28303 -3.504304,-8.56607 -7.203284,-11.42142 2.66067,3.69898 5.19155,7.72244 5.775604,12.39484 -2.855354,-0.32448 -6.100074,-0.58405 -7.982014,-3.05004 -3.69898,-4.47772 -3.5043,-10.83737 -2.2713,-16.2885 z"
     data-layer-id="9417777909056"
     style="fill:#25ba0b;stroke-width:0.648944"
     id="path1313" />
  <path
     class="st2"
     d="m 155.55395,44.802065 c -0.71384,-4.86709 -5.06177,-7.98202 -6.35966,-12.58952 -3.63409,4.28303 -6.61923,9.99374 -5.19155,15.76934 0.64894,2.92025 3.37451,4.47772 5.71071,5.97029 1.55746,-4.6075 1.1032,-9.40969 0.25958,-14.08209 2.07662,4.34793 2.07662,9.15011 1.36278,13.82251 1.94683,-2.53088 4.6724,-5.32134 4.21814,-8.89053 z"
     data-layer-id="1304041209056"
     style="fill:#25ba0b;stroke-width:0.648944"
     id="path1315" />
  <path
     class="st2"
     d="m 151.85496,31.758285 c -3.4394,-4.86709 -2.72556,-11.29163 -0.90852,-16.61298 2.92025,3.82877 8.11181,5.19156 10.5129,9.47459 1.75215,3.17983 0.19468,6.74902 -0.71384,9.92885 -1.1032,-4.60751 -2.79046,-9.08522 -6.29476,-12.39484 2.46599,4.02346 4.6724,8.30649 4.86708,13.17357 -2.72556,-0.58405 -5.8405,-1.1032 -7.46286,-3.56919 z"
     data-layer-id="6219724309056"
     style="fill:#25ba0b;stroke-width:0.648944"
     id="path1317" />
  <path
     class="st2"
     d="m 82.872194,47.203155 c 4.6724,2.92025 8.95543,7.33307 9.47458,13.10868 0.45426,3.244717 -1.75215,5.775597 -3.69898,8.046897 -2.98514,-3.82877 -3.69898,-8.630947 -4.02345,-13.368247 -0.90853,4.6724 0.32447,9.279907 2.20641,13.562937 -2.53089,-1.94683 -5.8405,-3.82877 -6.48945,-7.268177 -0.71384,-4.86708 2.79046,-9.15011 2.53089,-14.08209 z"
     data-layer-id="7897583209056"
     style="fill:#25ba0b;stroke-width:0.648944"
     id="path1319" />
  <path
     class="st2"
     d="m 21.28737,45.840375 c 5.58092,0.64894 11.74589,2.72556 14.66614,7.98201 1.49258,2.53089 0.58405,5.51603 0,8.176697 -4.02345,-2.011727 -6.81391,-5.645807 -9.47458,-9.085217 1.55746,4.21814 4.80219,7.33307 8.1767,10.123527 -3.24473,-0.58405 -7.26818,-0.71384 -9.3448,-3.698977 -2.79046,-4.02346 -1.88194,-9.2799 -4.02346,-13.49804 z"
     data-layer-id="4483502609056"
     style="fill:#25ba0b;stroke-width:0.648944"
     id="path1321" />
  <path
     class="st2"
     d="m 124.46952,63.816122 c -0.0649,5.06177 3.95856,9.21501 3.17982,14.27678 -0.51915,3.30962 -3.63409,5.25645 -5.97029,7.33307 1.55747,-4.34793 2.59578,-9.02033 1.68726,-13.62783 -0.32447,4.6075 -0.90852,9.3448 -3.30962,13.43315 -2.07662,-1.81705 -4.34792,-3.89367 -4.34792,-6.87881 -0.19469,-6.10008 4.08835,-11.16184 8.76075,-14.53636 z"
     data-layer-id="865394409056"
     style="fill:#25ba0b;stroke-width:0.648944"
     id="path1323" />
  <path
     class="st2"
     d="m 43.54616,68.942782 c 5.38624,1.68726 10.83737,5.19156 12.52463,10.90227 0.97341,2.92025 -0.58405,5.64581 -1.94684,8.1118 -3.63408,-3.17982 -5.64581,-7.59265 -7.20328,-12.07036 0.38937,4.80219 2.85536,9.02032 5.77561,12.7842 -3.24472,-1.23299 -7.26818,-2.53088 -8.37138,-6.22986 -1.36279,-4.47772 0.38936,-9.08522 -0.77874,-13.49805 z"
     data-layer-id="4239768309056"
     style="fill:#25ba0b;stroke-width:0.648944"
     id="path1325" />
  <path
     class="st2"
     d="m 1.49457,76.016282 c 5.71071,0.32447 12.00547,2.20641 15.1204,7.39796 1.62236,2.46599 0.77874,5.51603 0.12979,8.1767 -4.21813,-2.01173 -7.13838,-5.64581 -9.92884,-9.2799 1.62236,4.41282 5.19155,7.52775 8.76074,10.38311 -3.17982,-0.51916 -6.87881,-0.38937 -9.15011,-3.05004 -3.30962,-3.82877 -2.20641,-9.47459 -4.93198,-13.62783 z"
     data-layer-id="4128743609056"
     style="fill:#25ba0b;stroke-width:0.648944"
     id="path1327" />
  <path
     class="st2"
     d="m 95.656394,84.777032 c 3.17983,4.54261 5.580916,10.25332 3.89366,15.899128 -0.84362,2.98514 -3.76387,4.47772 -6.29476,5.8405 -1.23299,-4.60751 -0.19468,-9.215008 0.71384,-13.757618 -2.07662,4.08835 -2.59577,8.695848 -2.3362,13.303358 -1.75215,-2.66067 -4.08834,-5.45113 -3.5043,-8.825638 0.84363,-5.06177 5.9054,-7.78734 7.52776,-12.45973 z"
     data-layer-id="5213912609056"
     style="fill:#25ba0b;stroke-width:0.648944"
     id="path1329" />
  <path
     class="st2"
     d="m 137.18882,101.06553 c 3.76388,-2.985148 7.98202,-5.451128 12.8491,-5.905398 -4.47772,1.62236 -8.95543,3.63409 -12.13526,7.397968 2.4011,1.23299 5.12666,2.72556 7.91712,1.88194 5.77561,-1.68726 9.27991,-7.268178 11.03206,-12.654418 -4.7373,1.42768 -9.86396,-0.90852 -14.47146,1.233 -3.11493,1.42768 -3.95856,5.12666 -5.19156,8.046908 z"
     data-layer-id="1588508209056"
     style="fill:#25ba0b;stroke-width:0.648944"
     id="path1331" />
  <path
     class="st2"
     d="m 106.49376,113.91462 c 2.85535,-5.12666 8.76075,-7.33307 14.27677,-8.1118 -2.20641,4.21814 -1.03831,9.40969 -3.5043,13.49804 -1.94683,3.17983 -6.03518,3.43941 -9.2799,4.15325 3.56919,-3.05004 6.74902,-6.68413 8.04691,-11.29164 -2.40109,4.08835 -5.25645,7.91712 -9.40969,10.31822 -0.84363,-2.72557 -1.75215,-5.90539 -0.12979,-8.56607 z"
     data-layer-id="700373509056"
     style="fill:#25ba0b;stroke-width:0.648944"
     id="path1333" />
  <path
     class="st2"
     d="m 52.89096,115.14762 c 5.64582,0.84363 11.681004,3.56919 14.146994,9.08522 1.23299,2.66067 0.0649,5.51602 -0.71384,8.1118 -4.02346,-2.53088 -6.684134,-6.55434 -9.020334,-10.57779 1.1681,4.54261 4.153244,8.30649 7.657544,11.35652 -3.17982,-0.58404 -6.943704,-1.03831 -8.825644,-4.02345 -2.72556,-4.15324 -1.03831,-9.53948 -3.24472,-13.9523 z"
     data-layer-id="794887409056"
     style="fill:#25ba0b;stroke-width:0.648944"
     id="path1335" />
  <path
     class="st2"
     d="m 3.89567,116.25082 c 4.93197,0.97342 9.73416,-2.20641 14.60124,-0.51915 3.17983,1.1681 4.47772,4.54261 6.10008,7.20328 -3.89367,-2.20641 -8.04691,-4.21814 -12.65441,-4.08835 4.34792,1.23299 8.69585,2.59578 12.13525,5.71071 -2.14151,1.49257 -4.34792,3.30962 -7.13838,2.98514 -6.16497,-0.64894 -10.5778,-5.90539 -13.04378,-11.29163 z"
     data-layer-id="9665973509056"
     style="fill:#25ba0b;stroke-width:0.648944"
     id="path1337" />
  <path
     class="st2"
     d="m 34.59073,145.77779 c 4.54261,-3.24472 10.38311,-5.71071 16.02893,-3.89367 2.92024,0.84363 4.28303,3.69899 5.64581,6.16497 -4.6724,1.1681 -9.47459,0.32448 -14.08209,-0.77873 4.21814,2.20641 8.95543,2.72557 13.69272,2.40109 -2.72556,1.88194 -5.7756,4.34793 -9.34479,3.5692 -4.6724,-1.233 -7.46286,-5.71071 -11.94058,-7.46286 z"
     data-layer-id="1887467809056"
     style="fill:#25ba0b;stroke-width:0.648944"
     id="path1339" />
  <path
     class="st0"
     d="m 139.65481,21.310275 -0.19468,1.36279 c 0.0649,-0.25958 0.0649,-0.51916 0.12979,-0.77874 0.0649,-0.19468 0.0649,-0.38936 0.0649,-0.58405 z"
     data-layer-id="932543609056"
     style="fill:#333333;stroke-width:0.648944"
     id="path1341" />
  <path
     class="st0"
     d="M 170.54456,80.883362 Z"
     data-layer-id="2956902609056"
     style="fill:#333333;stroke-width:0.648944"
     id="path1343" />
  <path
     class="st0"
     d="m 158.27951,72.057722 c 0.51916,-1.10321 0.97342,-2.27131 1.42768,-3.43941 0.58405,-1.68725 1.03831,-3.30961 1.42768,-5.06176 -0.90852,2.01172 -1.81705,4.73729 -2.85536,8.50117 z"
     data-layer-id="121459709056"
     style="fill:#333333;stroke-width:0.648944"
     id="path1345" />
  <path
     class="st0"
     data-layer-id="7535930109056"
     style="fill:#333333;stroke-width:0.648944"
     d="M 134.33347,91.266472 Z"
     id="path1347" />
  <path
     class="st0"
     d="m 160.16145,34.548745 c 0.45426,6.87881 1.36278,13.82251 0.32447,20.76621 -1.03831,9.215007 -4.73729,18.624707 -12.26504,24.400307 -4.15325,3.4394 -9.4097,4.86708 -14.27678,6.87881 -5.8405,2.3362 -11.16184,5.64581 -16.67787,8.63096 -8.56606,4.6724 -17.326806,9.669268 -23.816246,17.067228 -4.21814,4.7373 -7.20328,10.44801 -9.3448,16.41829 -2.01173,-8.82564 -4.15324,-18.10554 -1.94683,-27.19076 2.40109,-9.409688 8.1118,-17.456598 13.43314,-25.373718 9.993746,-12.45973 26.217346,-18.170437 35.432356,-31.344007 3.5043,-4.86709 5.77561,-10.38311 7.20328,-16.15872 -5.38623,16.48319 -17.91086,24.01094 -17.91086,24.01094 -6.48944,4.93198 -13.69272,8.955427 -20.18217,13.757617 3.89367,-11.680997 4.7373,-25.243927 -1.362776,-36.275977 2.336196,10.3831 2.530876,21.48005 -1.55746,31.473787 -2.79047,7.85223 -8.2416,14.21188 -13.10868,20.89601 -2.46599,-17.06723 -17.4566,-29.072697 -33.031264,-34.134467 8.1118,4.15324 16.028924,9.3448 21.480054,16.807657 4.54261,5.97029 7.13839,13.56293 6.48944,21.09069 -0.0649,5.7756 -4.08834,10.448 -5.12665,16.028918 -3.43941,14.21188 -0.12979,28.81313 2.33619,42.89522 C 63.923014,137.21172 49.51645,132.34464 38.74397,122.02643 27.71192,111.31885 22.90973,96.003762 21.09269,81.078042 c 0.45426,14.27678 3.95856,28.878018 12.7842,40.429228 7.85223,10.5129 19.72791,16.67787 30.630174,23.42689 5.77561,3.56919 12.45973,7.39797 14.47146,14.34167 2.14152,8.1118 2.85536,16.67787 1.81704,25.04925 l -0.19468,1.1681 c 0,0 -1.49257,8.30649 -12.00547,13.23846 -1.94683,0.77874 -3.95856,1.29789 -5.97029,1.62236 -1.75215,2.4011 -4.347924,3.89367 -7.397964,3.5043 -4.99687,-0.38936 -9.40969,2.27131 -13.30336,4.99687 4.47772,-2.07662 9.40969,-2.98514 14.40656,-2.59577 4.02346,0.32447 6.943714,-2.59578 9.993754,-4.6724 3.30961,-0.97342 7.0086,-1.1681 9.66927,-3.37451 l 0.58405,-0.38937 c -2.01173,2.59578 -5.19156,6.81392 -6.87881,9.02033 9.21501,-7.39797 15.31508,-17.78108 19.27364,-28.74824 -2.40109,9.66927 -6.29476,19.27365 -13.17357,26.67161 -4.21813,4.60751 -9.86395,7.91712 -16.028924,9.3448 -3.17983,0.51916 -6.42455,-0.64894 -9.60438,0 -3.11493,1.1681 -4.93197,4.34793 -8.04691,5.45113 -4.54261,1.10321 -9.08522,-1.23299 -13.62783,-0.25957 -4.02345,0.90852 -7.59264,3.11493 -11.09694,5.32134 4.15324,-1.62236 8.43627,-3.69898 13.04378,-3.11493 4.73729,0.58405 9.60437,2.2713 14.40656,0.90852 3.82877,-0.64895 6.87881,-3.37451 10.57779,-4.21814 3.76388,0.0649 7.462864,-0.77873 11.032064,-1.88194 -2.46599,2.98515 -4.93198,6.22987 -8.630964,7.85223 -2.85536,1.03831 -5.97029,0.84363 -8.76075,2.14152 -4.60751,2.14151 -9.73417,2.53088 -14.66614,3.11493 v 0.25958 c 6.48944,1.23299 12.91399,-0.84363 19.33854,-1.49258 3.37451,-0.58405 7.462864,-0.25957 9.799064,-3.24472 5.71071,-6.42455 14.08209,-9.08522 21.35026,-13.17357 6.81392,-4.73729 7.0086,-13.82251 7.72244,-21.28537 1.03831,5.97029 1.49257,12.58952 -1.75215,18.04065 -2.20641,4.02346 -6.29476,6.61923 -10.5129,8.1767 -2.07662,0.77873 -4.80218,1.94683 -4.6075,4.6724 0.51915,4.02345 4.02345,6.81391 5.12666,10.64268 -0.12979,2.20642 -1.1681,4.21814 -1.75215,6.29476 1.49257,-2.3362 3.82877,-4.86708 2.92025,-7.85222 -0.97342,-3.05004 -3.17983,-6.61923 -0.84363,-9.60438 2.3362,-4.08835 9.47459,-4.21813 10.96716,0.58405 1.36278,5.71071 -4.02346,9.79906 -6.87881,14.0172 3.4394,-2.20641 6.42455,-4.99687 8.82564,-8.30649 3.17983,4.60751 9.150116,4.34793 14.082086,4.47772 3.24472,-0.12979 5.9054,2.01173 8.69586,3.30961 -4.08835,-5.7756 -11.87568,-4.67239 -17.197026,-8.43627 -3.95856,-2.46599 -4.47771,-7.65754 -5.12666,-11.87568 1.68726,5.58092 7.462856,7.52775 11.421416,11.16184 3.11494,2.79046 7.26818,3.69898 11.16184,4.93198 2.66068,0.71383 4.08835,3.24472 6.42455,4.54261 2.07662,0.84362 4.34793,1.1032 6.55434,1.62236 -2.46599,-1.42768 -5.19155,-2.59578 -6.9437,-4.86709 -1.49258,-1.94683 -3.11494,-3.82877 -5.45114,-4.73729 -4.21813,-1.75215 -8.24159,-4.28303 -10.77247,-8.1118 -2.53088,-4.34793 -0.77873,-9.60438 -2.59578,-14.14699 -1.42768,-4.34792 -4.867076,-8.1767 -4.477706,-12.97888 0.843616,-12.65442 -3.63409,-24.72478 -7.46286,-36.60046 -1.68726,-4.60751 -2.59578,-9.73417 -0.97342,-14.47146 1.42768,-3.89366 5.38624,-5.97029 9.085216,-7.20328 11.681,-3.76388 24.4652,-2.07662 35.95151,-6.61923 3.5692,-1.29789 6.55434,-3.89367 9.08522,-6.61923 -3.89366,2.98514 -8.30648,5.32134 -13.23846,5.84049 -13.49804,1.68726 -27.70992,-1.81704 -40.559016,3.63409 1.55747,-4.08835 3.24472,-8.1767 5.8405,-11.68099 7.268176,-10.05864 18.689596,-15.76935 28.878016,-22.323688 2.53089,-1.68725 5.12666,-3.17983 7.85223,-4.47771 2.14151,-1.03831 4.34793,-1.94684 6.61923,-2.72557 3.05004,-1.49257 6.68413,-3.56919 9.92885,-6.16497 2.98514,-2.98514 5.58092,-6.42455 7.39796,-10.25332 1.03831,-3.82877 2.01173,-6.55434 2.79046,-8.50117 2.01173,-9.799057 0.97342,-19.857697 -0.90852,-29.332277 z"
     data-layer-id="3292665409056"
     style="fill:#333333;stroke-width:0.648944"
     id="path1349" />
  <path
     d="m 66.120004,329.43025 3.78,-17.76 h 6.95 q 1.25,0 2.16,0.66 0.91,0.67 1.38,1.72 0.46,1.05 0.46,2.22 0,1.2 -0.49,2.38 -0.49,1.17 -1.35,2.14 -0.86,0.96 -1.99,1.52 -1.12,0.57 -2.37,0.57 h -5.4 l -1.4,6.55 z m 3.45,-8.11 h 5.3 q 0.88,0 1.64,-0.42 0.76,-0.43 1.34,-1.14 0.57,-0.71 0.9,-1.57 0.32,-0.87 0.32,-1.77 0,-0.92 -0.33,-1.63 -0.34,-0.72 -0.93,-1.14 -0.59,-0.43 -1.36,-0.43 h -5.15 z m 18.43,8.36 q -1.52,0 -2.8,-0.5 -1.27,-0.5 -2.07,-1.45 l 1,-1.15 q 0.85,0.9 1.85,1.32 1,0.43 2.17,0.43 1.13,0 1.98,-0.34 0.85,-0.34 1.34,-0.95 0.48,-0.61 0.48,-1.44 0,-0.95 -0.81,-1.34 -0.81,-0.38 -2.36,-0.81 -1.18,-0.35 -1.98,-0.66 -0.8,-0.31 -1.19,-0.8 -0.38,-0.49 -0.38,-1.37 0,-1.37 0.73,-2.36 0.74,-0.99 1.99,-1.54 1.25,-0.55 2.8,-0.55 1.48,0 2.53,0.5 1.05,0.5 1.62,1.28 l -1.05,1 q -0.52,-0.75 -1.35,-1.1 -0.82,-0.35 -1.9,-0.35 -0.97,0 -1.82,0.3 -0.85,0.3 -1.37,0.9 -0.51,0.6 -0.51,1.52 0,0.83 0.61,1.17 0.62,0.33 2.02,0.71 1.32,0.38 2.26,0.76 0.94,0.39 1.41,0.97 0.48,0.57 0.48,1.52 0,1.28 -0.71,2.25 -0.72,0.98 -1.99,1.53 -1.28,0.55 -2.98,0.55 z m 10.68,-0.25 2.749996,-13.03 h 1.7 l -2.75,13.03 z m 3.349996,-15.76 0.53,-2.5 h 1.7 l -0.53,2.5 z m 10.5,16.01 q -1.57,0 -2.7,-0.75 -1.12,-0.75 -1.71,-2 -0.59,-1.25 -0.59,-2.78 0,-1.57 0.6,-3.01 0.6,-1.44 1.67,-2.55 1.06,-1.12 2.47,-1.77 1.42,-0.65 3.04,-0.65 1.8,0 2.94,0.84 1.14,0.84 1.49,2.26 l -1.75,0.53 q -0.33,-1.03 -1.09,-1.58 -0.76,-0.55 -1.84,-0.55 -1.1,0 -2.14,0.49 -1.04,0.49 -1.85,1.36 -0.81,0.88 -1.3,2 -0.49,1.13 -0.49,2.41 0,1.22 0.44,2.17 0.44,0.95 1.23,1.51 0.78,0.57 1.78,0.57 0.81,0 1.62,-0.3 0.81,-0.3 1.46,-0.82 0.65,-0.51 0.95,-1.11 l 1.58,0.5 q -0.53,0.93 -1.45,1.66 -0.93,0.74 -2.05,1.15 -1.13,0.42 -2.31,0.42 z m 16.28,0 q -1.7,0 -2.82,-0.74 -1.13,-0.74 -1.68,-1.99 -0.55,-1.25 -0.55,-2.75 0,-1.65 0.62,-3.1 0.61,-1.45 1.66,-2.56 1.05,-1.12 2.44,-1.74 1.39,-0.63 2.91,-0.63 1.68,0 2.81,0.75 1.14,0.75 1.69,1.99 0.55,1.24 0.55,2.76 0,1.66 -0.6,3.11 -0.6,1.45 -1.66,2.55 -1.06,1.1 -2.44,1.72 -1.37,0.63 -2.93,0.63 z m 0.3,-1.5 q 1.06,0 2.06,-0.47 1,-0.46 1.78,-1.31 0.79,-0.85 1.27,-1.99 0.47,-1.13 0.47,-2.48 0,-1.21 -0.41,-2.17 -0.41,-0.96 -1.2,-1.52 -0.79,-0.57 -1.99,-0.57 -1.05,0 -2.05,0.48 -1,0.47 -1.79,1.34 -0.79,0.86 -1.26,2 -0.48,1.14 -0.48,2.49 0,1.2 0.42,2.16 0.41,0.96 1.21,1.5 0.8,0.54 1.97,0.54 z m 5.91,-17.01 -2.63,2.75 -1.05,-0.42 1.9,-2.33 z m 8.27,18.41 q -0.92,0 -1.45,-0.48 -0.52,-0.47 -0.52,-1.35 0,-0.17 0.04,-0.35 l 0.06,-0.35 3.35,-15.88 h 1.7 l -3.25,15.31 q -0.03,0.12 -0.04,0.22 -0.01,0.1 -0.01,0.23 0,1.1 1.17,1.1 0.28,0 0.67,-0.08 0.39,-0.07 0.71,-0.2 l -0.05,1.38 q -0.48,0.2 -1.16,0.32 -0.69,0.13 -1.22,0.13 z m 12.61,0.1 q -1.7,0 -2.83,-0.74 -1.12,-0.74 -1.67,-1.99 -0.55,-1.25 -0.55,-2.75 0,-1.65 0.61,-3.1 0.61,-1.45 1.66,-2.56 1.05,-1.12 2.44,-1.74 1.39,-0.63 2.91,-0.63 1.68,0 2.82,0.75 1.14,0.75 1.69,1.99 0.55,1.24 0.55,2.76 0,1.66 -0.6,3.11 -0.6,1.45 -1.67,2.55 -1.06,1.1 -2.44,1.72 -1.37,0.63 -2.92,0.63 z m 0.3,-1.5 q 1.05,0 2.05,-0.47 1,-0.46 1.79,-1.31 0.78,-0.85 1.26,-1.99 0.48,-1.13 0.48,-2.48 0,-1.21 -0.42,-2.17 -0.41,-0.96 -1.2,-1.52 -0.79,-0.57 -1.99,-0.57 -1.05,0 -2.05,0.48 -1,0.47 -1.78,1.34 -0.79,0.86 -1.27,2 -0.47,1.14 -0.47,2.49 0,1.2 0.41,2.16 0.41,0.96 1.21,1.5 0.8,0.54 1.98,0.54 z m 15.63,6.82 q -2.1,0 -3.27,-0.8 -1.16,-0.8 -1.68,-2.15 l 1.2,-0.82 q 0.5,1.22 1.54,1.82 1.03,0.6 2.48,0.6 1.18,0 2.28,-0.46 1.1,-0.46 1.9,-1.39 0.8,-0.92 1.1,-2.32 l 0.55,-2.58 q -0.98,1.23 -2.36,1.96 -1.39,0.74 -2.74,0.74 -1.4,0 -2.43,-0.75 -1.02,-0.75 -1.56,-1.97 -0.54,-1.23 -0.54,-2.65 0,-1.55 0.59,-2.99 0.59,-1.44 1.61,-2.58 1.03,-1.14 2.37,-1.81 1.33,-0.68 2.78,-0.68 1.6,0 2.58,0.85 0.98,0.85 1.55,2.1 l 0.58,-2.72 h 1.5 l -2.78,13.08 q -0.37,1.8 -1.46,3.04 -1.09,1.23 -2.62,1.86 -1.52,0.62 -3.17,0.62 z m 1.8,-6.82 q 0.72,0 1.45,-0.28 0.72,-0.27 1.39,-0.74 0.66,-0.46 1.15,-1.03 0.49,-0.58 0.74,-1.18 l 0.85,-4.03 q -0.13,-0.95 -0.64,-1.68 -0.51,-0.74 -1.26,-1.15 -0.76,-0.42 -1.63,-0.42 -1.18,0 -2.19,0.57 -1.01,0.56 -1.79,1.5 -0.77,0.93 -1.21,2.03 -0.44,1.11 -0.44,2.18 0,1.15 0.45,2.11 0.45,0.97 1.25,1.54 0.8,0.58 1.88,0.58 z m 17.25,1.5 q -1.42,0 -2.47,-0.75 -1.05,-0.75 -1.6,-2 -0.55,-1.25 -0.55,-2.7 0,-1.55 0.59,-2.99 0.58,-1.44 1.6,-2.58 1.01,-1.14 2.31,-1.81 1.3,-0.68 2.73,-0.68 1.57,0 2.6,0.87 1.02,0.86 1.45,2.08 l 0.6,-2.72 h 1.7 l -2.3,10.8 q -0.03,0.08 -0.04,0.16 -0.01,0.09 -0.01,0.17 0,0.4 0.47,0.4 l -0.32,1.5 q -0.2,0.02 -0.37,0.05 -0.16,0.02 -0.31,0.02 -0.57,-0.02 -0.86,-0.31 -0.29,-0.29 -0.29,-0.69 0,-0.15 0.03,-0.32 0.02,-0.18 0.08,-0.48 0.07,-0.3 0.17,-0.8 -1,1.28 -2.42,2.03 -1.41,0.75 -2.79,0.75 z m 0.7,-1.5 q 0.63,0 1.34,-0.25 0.72,-0.25 1.39,-0.69 0.68,-0.44 1.21,-1.04 0.54,-0.6 0.79,-1.25 l 0.83,-4.03 q -0.1,-0.9 -0.6,-1.62 -0.5,-0.73 -1.25,-1.18 -0.75,-0.45 -1.65,-0.45 -1.13,0 -2.13,0.55 -1,0.55 -1.79,1.48 -0.79,0.92 -1.24,2.04 -0.45,1.11 -0.45,2.24 0,1.15 0.45,2.1 0.45,0.95 1.24,1.52 0.79,0.58 1.86,0.58 z"
     data-horizontal-grow="center"
     style="fill:#1f9401;fill-opacity:1"
     id="path1353" />
  <path
     d="m 25.01,292.46325 q 0.37,0 0.66,0.3 l 1.74,1.9 q -2.01,2.33 -4.88,3.63 -2.87,1.31 -6.92,1.31 -3.54,0 -6.42,-1.23 -2.88,-1.22 -4.92,-3.43 -2.03,-2.2 -3.15,-5.29 -1.12,-3.09 -1.12,-6.79 0,-3.7 1.2,-6.79 1.2,-3.09 3.37,-5.3 2.17,-2.22 5.2,-3.44 3.03,-1.23 6.69,-1.23 3.61,0 6.23,1.12 2.62,1.12 4.65,3.04 l -1.44,2.04 q -0.16,0.23 -0.36,0.38 -0.21,0.14 -0.6,0.14 -0.3,0 -0.63,-0.21 -0.33,-0.22 -0.79,-0.54 -0.45,-0.32 -1.07,-0.69 -0.62,-0.36 -1.46,-0.68 -0.85,-0.32 -1.97,-0.54 -1.12,-0.22 -2.58,-0.22 -2.63,0 -4.82,0.91 -2.18,0.9 -3.76,2.57 -1.58,1.67 -2.46,4.07 -0.88,2.4 -0.88,5.37 0,3.06 0.88,5.47 0.88,2.4 2.41,4.05 1.52,1.66 3.6,2.53 2.08,0.87 4.48,0.87 1.46,0 2.63,-0.17 1.16,-0.17 2.16,-0.54 0.99,-0.37 1.85,-0.93 0.86,-0.56 1.72,-1.33 0.39,-0.35 0.76,-0.35 z m 24.6,-8.04 v 14.81 H 47.8 q -0.59,0 -0.96,-0.18 -0.36,-0.19 -0.48,-0.78 l -0.45,-2.15 q -0.92,0.82 -1.79,1.48 -0.87,0.65 -1.83,1.09 -0.96,0.45 -2.04,0.68 -1.09,0.23 -2.41,0.23 -1.35,0 -2.53,-0.38 -1.18,-0.38 -2.05,-1.13 -0.87,-0.76 -1.38,-1.91 -0.52,-1.16 -0.52,-2.73 0,-1.38 0.76,-2.64 0.75,-1.27 2.43,-2.26 1.68,-0.98 4.41,-1.61 2.72,-0.63 6.65,-0.72 v -1.8 q 0,-2.7 -1.16,-4.09 -1.15,-1.38 -3.41,-1.38 -1.49,0 -2.51,0.38 -1.01,0.38 -1.76,0.84 -0.74,0.47 -1.28,0.85 -0.54,0.38 -1.06,0.38 -0.41,0 -0.72,-0.22 -0.31,-0.22 -0.49,-0.54 l -0.73,-1.3 q 1.92,-1.85 4.13,-2.77 2.22,-0.91 4.92,-0.91 1.94,0 3.45,0.64 1.51,0.64 2.54,1.78 1.03,1.15 1.55,2.77 0.53,1.62 0.53,3.57 z m -10.56,12.32 q 1.07,0 1.96,-0.22 0.89,-0.22 1.68,-0.62 0.79,-0.4 1.51,-0.97 0.72,-0.57 1.41,-1.3 v -4.82 q -2.81,0.09 -4.78,0.44 -1.97,0.36 -3.2,0.93 -1.24,0.57 -1.8,1.35 -0.56,0.77 -0.56,1.73 0,0.92 0.3,1.58 0.3,0.66 0.8,1.09 0.5,0.42 1.19,0.61 0.69,0.2 1.49,0.2 z m 20.8,2.49 h -4.07 v -23.16 h 2.33 q 0.67,0 0.92,0.25 0.25,0.25 0.34,0.87 l 0.28,3.61 q 1.180004,-2.42 2.930004,-3.78 1.75,-1.36 4.11,-1.36 0.96,0 1.74,0.22 0.77,0.21 1.44,0.6 l -0.53,3.04 q -0.16,0.57 -0.71,0.57 -0.32,0 -0.98,-0.21 -0.67,-0.22 -1.85,-0.22 -2.13,0 -3.56,1.23 -1.43,1.24 -2.390004,3.59 z m 23.730004,-23.52 q 2.54,0 4.59,0.84 2.04,0.85 3.47,2.4 1.43,1.56 2.2,3.76 0.76,2.21 0.76,4.93 0,2.74 -0.76,4.94 -0.77,2.19 -2.2,3.75 -1.43,1.55 -3.47,2.39 -2.05,0.83 -4.59,0.83 -2.53,0 -4.58,-0.83 -2.05,-0.84 -3.49,-2.39 -1.44,-1.56 -2.22,-3.75 -0.77,-2.2 -0.77,-4.94 0,-2.72 0.77,-4.93 0.78,-2.2 2.22,-3.76 1.44,-1.55 3.49,-2.4 2.05,-0.84 4.58,-0.84 z m 0,20.66 q 3.43,0 5.12,-2.29 1.7,-2.3 1.7,-6.42 0,-4.14 -1.7,-6.45 -1.69,-2.3 -5.12,-2.3 -1.73,0 -3.01,0.59 -1.29,0.59 -2.14,1.71 -0.86,1.13 -1.28,2.76 -0.43,1.63 -0.43,3.69 0,2.06 0.43,3.68 0.42,1.63 1.28,2.74 0.85,1.1 2.14,1.7 1.28,0.59 3.01,0.59 z m 16.509996,-30.82 h 4.07 v 33.68 h -4.07 z m 11.71,10.52 h 4.06 v 23.16 h -4.06 z m 4.98,-7.27 q 0,0.6 -0.24,1.11 -0.24,0.51 -0.64,0.91 -0.4,0.4 -0.93,0.63 -0.52,0.23 -1.12,0.23 -0.59,0 -1.11,-0.23 -0.51,-0.23 -0.91,-0.63 -0.4,-0.4 -0.63,-0.91 -0.23,-0.51 -0.23,-1.11 0,-0.59 0.23,-1.13 0.23,-0.54 0.63,-0.94 0.4,-0.4 0.91,-0.63 0.52,-0.23 1.11,-0.23 0.6,0 1.12,0.23 0.53,0.23 0.93,0.63 0.4,0.4 0.64,0.94 0.24,0.54 0.24,1.13 z m 10.33,30.43 h -4.07 v -23.16 h 2.43 q 0.87,0 1.09,0.85 l 0.32,2.51 q 1.51,-1.67 3.38,-2.7 1.86,-1.02 4.31,-1.02 1.89,0 3.35,0.62 1.45,0.63 2.42,1.79 0.97,1.15 1.47,2.77 0.51,1.63 0.51,3.59 v 14.75 h -4.07 v -14.75 q 0,-2.62 -1.2,-4.08 -1.2,-1.45 -3.67,-1.45 -1.81,0 -3.37,0.87 -1.57,0.87 -2.9,2.36 z m 38.37,-14.81 v 14.81 h -1.81 q -0.59,0 -0.96,-0.18 -0.37,-0.19 -0.48,-0.78 l -0.46,-2.15 q -0.91,0.82 -1.78,1.48 -0.87,0.65 -1.83,1.09 -0.96,0.45 -2.05,0.68 -1.08,0.23 -2.41,0.23 -1.35,0 -2.52,-0.38 -1.18,-0.38 -2.05,-1.13 -0.87,-0.76 -1.38,-1.91 -0.52,-1.16 -0.52,-2.73 0,-1.38 0.76,-2.64 0.75,-1.27 2.43,-2.26 1.68,-0.98 4.4,-1.61 2.72,-0.63 6.66,-0.72 v -1.8 q 0,-2.7 -1.16,-4.09 -1.15,-1.38 -3.42,-1.38 -1.48,0 -2.5,0.38 -1.02,0.38 -1.76,0.84 -0.74,0.47 -1.28,0.85 -0.54,0.38 -1.06,0.38 -0.42,0 -0.72,-0.22 -0.31,-0.22 -0.5,-0.54 l -0.73,-1.3 q 1.92,-1.85 4.14,-2.77 2.22,-0.91 4.92,-0.91 1.94,0 3.45,0.64 1.51,0.64 2.54,1.78 1.02,1.15 1.55,2.77 0.53,1.62 0.53,3.57 z m -10.57,12.32 q 1.08,0 1.97,-0.22 0.89,-0.22 1.68,-0.62 0.79,-0.4 1.51,-0.97 0.72,-0.57 1.41,-1.3 v -4.82 q -2.82,0.09 -4.78,0.44 -1.97,0.36 -3.2,0.93 -1.24,0.57 -1.8,1.35 -0.56,0.77 -0.56,1.73 0,0.92 0.3,1.58 0.3,0.66 0.8,1.09 0.5,0.42 1.19,0.61 0.68,0.2 1.48,0.2 z m 54.6,-13.88 q 0,3.68 -1.17,6.7 -1.16,3.02 -3.29,5.17 -2.12,2.15 -5.1,3.32 -2.97,1.18 -6.58,1.18 h -12.26 v -32.76 h 12.26 q 3.61,0 6.58,1.18 2.98,1.17 5.1,3.33 2.13,2.16 3.29,5.18 1.17,3.02 1.17,6.7 z m -4.55,0 q 0,-3.02 -0.82,-5.39 -0.83,-2.38 -2.33,-4.03 -1.51,-1.64 -3.66,-2.51 -2.15,-0.87 -4.78,-0.87 h -7.8 v 25.58 h 7.8 q 2.63,0 4.78,-0.87 2.15,-0.87 3.66,-2.5 1.5,-1.64 2.33,-4.01 0.82,-2.38 0.82,-5.4 z m 10.4,-6.79 h 4.07 v 23.16 h -4.07 z m 4.85,-9.97 h 3.98 l -5.33,5.9 q -0.32,0.34 -0.63,0.49 -0.31,0.15 -0.79,0.15 h -2.42 l 3.38,-5.53 q 0.32,-0.53 0.7,-0.77 0.38,-0.24 1.11,-0.24 z m 23.41,18.32 v 14.81 h -1.81 q -0.59,0 -0.96,-0.18 -0.36,-0.19 -0.48,-0.78 l -0.45,-2.15 q -0.92,0.82 -1.79,1.48 -0.87,0.65 -1.83,1.09 -0.96,0.45 -2.04,0.68 -1.09,0.23 -2.41,0.23 -1.35,0 -2.53,-0.38 -1.18,-0.38 -2.05,-1.13 -0.86,-0.76 -1.38,-1.91 -0.51,-1.16 -0.51,-2.73 0,-1.38 0.75,-2.64 0.76,-1.27 2.44,-2.26 1.68,-0.98 4.4,-1.61 2.72,-0.63 6.65,-0.72 v -1.8 q 0,-2.7 -1.15,-4.09 -1.16,-1.38 -3.42,-1.38 -1.49,0 -2.51,0.38 -1.01,0.38 -1.76,0.84 -0.74,0.47 -1.28,0.85 -0.53,0.38 -1.06,0.38 -0.41,0 -0.72,-0.22 -0.31,-0.22 -0.49,-0.54 l -0.73,-1.3 q 1.92,-1.85 4.13,-2.77 2.22,-0.91 4.92,-0.91 1.94,0 3.45,0.64 1.51,0.64 2.54,1.78 1.03,1.15 1.55,2.77 0.53,1.62 0.53,3.57 z m -10.56,12.32 q 1.07,0 1.96,-0.22 0.9,-0.22 1.68,-0.62 0.79,-0.4 1.51,-0.97 0.72,-0.57 1.41,-1.3 v -4.82 q -2.81,0.09 -4.78,0.44 -1.96,0.36 -3.2,0.93 -1.23,0.57 -1.79,1.35 -0.56,0.77 -0.56,1.73 0,0.92 0.29,1.58 0.3,0.66 0.8,1.09 0.51,0.42 1.19,0.61 0.69,0.2 1.49,0.2 z m 32.9,-20.67 v 1.74 q 0,0.43 -0.16,0.83 -0.16,0.4 -0.41,0.72 l -12.53,16.69 h 12.64 v 3.18 h -17.44 v -1.69 q 0,-0.3 0.14,-0.7 0.15,-0.4 0.43,-0.76 l 12.59,-16.81 h -12.46 v -3.2 z"
     data-horizontal-grow="center"
     style="fill:#000000"
     id="path1357" />
</svg>
